<svg width="1016" height="668" viewBox="0 0 1016 668" fill="none" xmlns="http://www.w3.org/2000/svg">
<path d="M866.766 347.391C866.2 346.797 866.075 345.83 864.462 346.019C864.099 346.474 863.574 346.898 863.458 347.264C862.912 349.758 862.245 352.263 861.596 354.789C861.207 357.616 861.133 360.356 861.374 362.988L859.104 366.947L859.013 374.935C859.091 375.123 859.237 375.276 859.442 375.385L860.573 376.085C861.871 375.635 863.15 375.165 864.489 374.69C864.001 376.756 865.295 378.463 862.756 381.024L859.922 380.211C859.581 380.619 859.014 381.069 858.94 381.41C858.739 382.94 858.392 384.508 857.901 386.103C857.29 387.516 857.085 388.867 857.298 390.07C857.61 391.435 857.272 393.037 856.323 394.691C855.067 396.648 856.816 397.648 855.548 399.384C854.28 401.119 856.224 400.79 856.521 401.519C857.294 400.904 858.172 400.358 859.104 399.91C859.805 399.67 860.526 399.938 860.946 400.101C862.291 399.492 863.655 398.414 863.221 400.12C862.428 400.172 861.666 400.165 860.946 400.101C859.77 400.886 858.559 401.64 857.321 402.359C858.273 402.941 856.907 404.085 856.689 404.971C856.471 405.858 855.147 406.976 856.119 407.579C857.525 406.964 858.69 405.26 860.335 405.802C858.161 407.841 858.161 407.841 856.119 407.579C854.771 408.255 854.645 408.888 854.863 409.536L855.307 410.629L853.43 414.443L856.201 417.351C855.464 418.577 854.831 419.799 854.309 421.01C854.234 421.863 854.263 422.686 854.394 423.47C854 427.795 854.387 431.895 853.398 436.362C853.092 437.923 855.693 437.935 854.545 439.727C853.397 441.518 855.33 442.501 853.607 444.456C851.884 446.411 853.754 446.91 853.064 448.417C852.375 449.923 853.46 451.271 852.065 453.151C850.669 455.032 852.724 456.004 851.312 457.798C854.043 460.176 851.298 464.334 852.431 468.589L855.163 471.457L854.158 473.747L860.461 480.363L863.437 480.142L865.193 481.985C865.815 481.98 866.531 481.782 867.189 481.433C867.848 481.084 868.397 480.611 868.722 480.113C878.869 467.627 879.584 466.496 882.61 459.846C883.24 459.486 883.852 459.105 884.444 458.704C884.735 458.523 884.707 458.214 884.951 457.703L883.331 456.003C883.194 455.86 883.369 455.555 883.377 455.354C884.326 454.469 885.256 453.563 886.184 452.725L885.266 451.762L889.156 442.813C887.53 440.757 892.215 437.383 891.045 435.109C890.944 434.934 890.8 434.782 890.616 434.658L892.831 430.015L895.753 423.953C894.078 422.613 896.385 420.295 897.149 418.449C897.913 416.602 899.416 414.556 898.525 412.925C898.057 412.433 899.559 410.943 899.841 409.984C900.656 407.355 903.473 404.459 902.858 402.002C902.244 399.544 906.699 396.346 904.823 394.447L911.219 381.717L910.185 380.631C911.876 377.391 912.385 374.286 911.657 371.652L916.043 363.503L915.302 362.725C916.274 359.704 919.166 356.467 919.024 353.88C918.883 351.292 921.391 348.489 922.206 345.86C922.298 345.607 922.678 345.24 922.561 345.117C921.234 343.724 923.935 341.193 923.668 339.728C923.571 338.468 923.853 337.085 924.499 335.653C925.425 332.792 928.312 329.689 927.708 326.964C927.225 324.784 931.548 321.309 929.756 319.357L934.944 308.913C932.817 306.681 937.797 303.057 936.654 300.603C935.715 298.642 940.634 295.024 938.557 293.054C940.252 290.073 941.475 287.119 942.197 284.26C942.969 281.385 944.204 278.426 945.878 275.44C946.982 272.696 948.556 269.888 949.885 267.102L954.433 257.938L953.34 256.791C954.14 256.097 955.682 255.137 955.934 254.426C956.995 251.219 961.225 248.062 961.98 244.883L967.412 245.776L969.715 248.193L972.71 247.992L978.955 254.547L977.968 256.368L983.355 262.022L982.335 264.158L984.814 266.759L984.023 269.275L987.36 272.778L986.492 275.211L988.99 277.833L988.063 280.205L990.561 282.827L989.556 285.118L991.293 286.941L990.288 289.231L992.025 291.054L991.145 293.266C991.945 294.106 993.426 294.685 993.389 295.622C993.1 297.413 993.463 299.014 994.445 300.284C992.885 303.247 995.003 305.191 993.237 308.216L995.033 310.101L994.061 312.077L995.762 314.281C994.247 316.106 995.312 316.944 996.585 318.142C995.677 319.506 995.046 320.869 994.719 322.176C994.657 323.226 995.377 324.051 994.306 325.436L996.94 328.201C995.698 331.357 996.924 333.759 995.787 336.817C998.226 337.844 995.613 341.234 998.367 342.522L995.273 346.243L997.712 348.804C995.498 351.357 996.312 353.396 995.755 355.669C995.517 356.535 996.367 357.148 996.914 358.21C995.345 362.045 994.786 365.717 995.268 369.026C995.398 371.12 995 373.384 994.089 375.734C993.67 377.272 993.537 378.749 993.692 380.126L995.993 383.099L993.136 385.465C993.414 385.942 993.632 386.45 993.787 386.985C993.832 387.381 993.239 388.013 993.201 388.461C993.237 389.181 993.345 389.877 993.525 390.543L991.824 393.984C991.602 395.494 994.618 395.802 992.536 398.078C993.112 400.435 992.74 403.15 991.452 405.998C990.978 407.377 990.871 408.684 991.137 409.85C991.395 412.072 991.158 414.471 991.068 416.746C991.487 419.03 990.862 421.677 989.262 424.398C990.081 426.207 989.9 428.447 988.745 430.824C987.612 433.259 988.693 435.23 986.72 437.828C989.139 438.346 984.889 441.482 987.349 441.973L984.364 448.108C986.552 449.291 985.331 451.912 985.475 453.943C985.961 455.866 985.778 458.046 984.937 460.349C983.596 462.913 984.641 464.776 983.219 467.326C981.797 469.876 983.292 471.654 981.016 474.213L983.749 477.081L978.511 487.751L980.462 489.799L977.739 492.377L977.781 497.997L975.698 499.294C976.073 501.231 975.871 503.379 975.102 505.638C973.705 508.074 975.497 509.537 973.677 511.877C973.292 512.379 972.753 513.138 972.968 513.363C974.471 514.941 971.086 517.8 972.002 519.318C972.917 520.836 970.24 522.765 970.859 525.088L971.093 525.333C969.982 527.358 969.02 529.373 968.213 531.371C967.55 533.252 965.315 535.297 966.548 537.009C967.445 537.952 964.135 540.47 965.178 541.844C966.221 543.218 962.833 545.654 963.841 547.409C964.628 548.584 963.584 550.833 963.257 552.929L964.779 554.527L963.774 556.817L965.492 558.62L964.551 560.837C965.94 561.669 965.741 563.62 968.37 563.452C969.38 562.562 968.852 561.52 970.626 560.872C970.352 560.097 969.377 559.562 971.815 559.055C971.473 559.661 971.075 560.268 970.626 560.872C971.074 561.268 971.478 561.691 971.836 562.142L976.038 561.745L977.642 558.69L975.283 558.722C975.56 556.793 975.62 554.923 975.463 553.128C975.236 552.192 976.127 551.245 976.264 550.344C976.402 549.443 980.181 547.905 978.737 546.389C978.191 545.815 979.417 544.105 979.912 542.883C980.407 541.661 979.148 540.617 980.454 538.923C981.43 537.497 982.287 536.07 983.021 534.648L980.855 532.375L983.382 530.148C984.568 528.267 985.402 526.395 985.857 524.593L981.418 523.766C981.718 521.85 983.936 521.252 985.572 519.972C985.877 519.456 986.62 518.634 986.686 518.006C986.63 516.07 987.227 513.941 988.436 511.759C987.09 510.345 989.068 508.102 989.793 506.215C990.001 505.595 989.185 505.157 989.372 504.518C989.902 502.426 992.128 500.093 991.598 498.074C991.068 496.053 994.847 492.982 993.889 491C992.931 489.019 996.917 486.373 994.836 485.025C995.366 483.5 996.109 481.945 997.052 480.382C998.297 478.693 996.474 478.033 997.514 476.406C998.553 474.78 999.73 473.297 998.137 472.461C999.708 470.765 998.218 469.898 998.721 468.475C999.461 467.033 999.853 465.627 999.88 464.326C999.43 462.184 999.613 459.804 1000.42 457.298C1001.45 454.827 1000.62 452.901 1002.1 450.346C1003.18 448.664 1003.49 447.027 1002.95 445.735C1001.92 444.65 1003.96 442.822 1002.96 441.912C1001.96 441.001 1003.78 439.571 1003.97 438.443C1004.05 437.783 1004.07 437.143 1004.01 436.528C1003.87 435.34 1005.13 433.671 1004.05 432.745C1005.2 430.572 1005.79 428.452 1005.8 426.499C1006.06 425.165 1007.13 423.78 1006.53 422.455C1005.93 421.13 1008.59 419.182 1007.88 417.6C1007.43 416.64 1009.49 414.545 1009.39 413.398C1009.29 412.25 1008.75 411.476 1009.86 410.199L1007.91 408.151C1008.81 406.255 1009.3 404.41 1009.35 402.688C1009.27 400.871 1009.5 398.873 1009.41 397.036C1009.32 395.2 1012.19 392.987 1010.49 391.628C1011.78 389.356 1010.79 387.756 1011.05 385.799C1011.31 383.842 1011.38 381.901 1011.69 379.918C1011.41 378.117 1011.6 376.15 1012.24 374.089C1010.53 373.265 1012.57 371.437 1012.85 370.124C1013.07 369.009 1013.16 367.931 1013.09 366.9C1012.97 365.057 1013.07 363.139 1013.4 361.16C1013.61 359.43 1014.5 357.506 1014.76 355.616C1015.02 348.924 1015.62 342.024 1015.71 335.215C1016.05 333.623 1015.83 332.18 1015.08 331.003C1014.38 330.266 1015.24 328.522 1015.13 327.287C1015.01 326.053 1016.55 323.626 1015.75 322.719C1014.76 321.443 1014.43 319.82 1014.78 318.005C1014.96 316.251 1014.67 314.643 1013.91 313.259C1013.72 311.648 1013.93 309.897 1014.54 308.068C1014.48 306.413 1014.58 304.704 1014.85 302.951C1015.35 301.039 1011.64 300.771 1014.35 298.106C1011.44 297.498 1013.9 294.501 1012.8 292.998C1011.75 291.52 1011.79 289.503 1012.92 287.342C1010.57 286.062 1013.28 282.42 1010.62 281.235L1011.56 279.017L1009.83 277.194L1010.83 274.903L1009.09 273.08L1010.09 271.125L1006.52 267.376L1007.03 266.241C1007.18 265.983 1007.48 265.601 1007.38 265.498C1006.05 264.105 1006.77 261.93 1006.1 260.322C1005.61 259.597 1004.99 258.946 1004.25 258.377L1005.13 256.164L1002.55 253.46L1003.56 251.17L1000.92 248.405L1001.93 246.114L997.517 241.485L998.423 239.648L991.066 231.926L988.821 232.149L989.449 230.159L986.823 230.26L984.13 227.434L981.135 227.635L979.378 225.791L969.319 226.801L956.443 234.82C953.502 238.284 950.963 241.333 948.282 244.373C946.674 245.938 945.152 247.528 943.725 249.137C942.782 250.7 942.039 252.255 941.509 253.781C941.126 254.779 940.603 255.794 939.947 256.81C939.167 257.71 938.258 258.584 937.243 259.408L938.238 260.452C937.422 262.592 935.007 265.075 937.194 266.325L934.402 268.063C932.011 273.012 929.822 278.031 927.04 283.125C925.507 285.907 926.602 288.032 924.783 290.861C923.064 293.666 921.701 296.461 920.715 299.205C920.103 300.793 920.907 302.055 919.776 303.934C918.704 305.387 918.193 306.846 918.311 308.11C918.605 309.395 917.163 311.436 916.446 313.123C915.869 314.654 915.129 316.206 914.231 317.766C913.191 319.393 915.076 320.047 913.708 321.747C911.696 324.305 913.942 326.105 911.603 328.737C909.264 331.368 911.511 332.612 909.994 334.993C908.507 337.536 907.26 340.069 906.261 342.573C906.158 343.412 906.237 344.199 906.494 344.908L902.674 352.606C904.114 354.745 900.946 357.762 900.376 360.369C901.334 360.817 900.807 361.798 900.442 362.808C900.355 363.659 900.461 364.451 900.756 365.159L898.672 366.456C897.669 368.19 899.068 369.31 897.692 371.212C896.818 372.48 896.192 373.751 895.836 374.978C895.72 375.344 896.786 375.627 896.695 375.879C894.524 379.385 895.426 382.284 893.767 385.699C894.821 386.805 893.15 388.465 892.566 389.874C891.982 391.282 893.821 391.539 892.517 393.168C891.213 394.796 892.07 396.253 891.517 397.902L889.976 398.863C888.558 401.317 887.766 403.729 887.643 405.962C887.725 407.999 884.479 410.935 885.702 412.915C885.936 413.161 885.195 413.916 885.054 414.395C884.11 417.725 880.037 421.534 881.384 424.481L876.673 434.171L876.623 439.554C875.413 440.863 873.967 442.481 872.468 443.904C872.701 444.705 873.717 445.215 871.237 445.748C871.608 445.132 872.019 444.517 872.468 443.904C871.883 443.29 871.18 442.552 870.282 441.61L872.656 438.108C871.855 436.78 871.297 435.985 870.967 435.081C870.83 434.937 871.73 434.279 872.174 433.839L870.106 431.668C871.721 424.722 869.425 419.037 872.742 411.717L871.064 409.955L872.047 407.711L869.998 405.561L872.915 401.166L868.505 400.648C866.875 399.48 865.737 397.977 865.144 396.214L868.495 395.759C869.557 394.086 867.487 394.005 867.486 392.471L868.184 390.763L866.232 388.715L868.94 386.54C871.396 386.609 871.46 388.07 872.55 388.795C872.883 388.588 873.425 388.25 873.466 388.225C873.689 385.67 873.892 383.096 873.97 380.599C873.795 380.415 873.13 380.274 872.67 380.071C870.868 381.455 871.038 382.818 870.006 384.243C868.095 384.259 867.813 383.684 868.498 381.266L866.839 379.526C867.904 378.274 867.384 377.031 869.382 375.853L869.639 372.429L863.267 372.71C862.349 370.076 863.153 366.773 865.523 363.44C869.089 363.316 872.207 363.884 874.603 365.095C875.393 364.598 876.04 363.989 876.446 363.36C876.852 362.731 876.995 362.114 876.854 361.604C876.005 359.947 877.569 357.895 878.269 356.121L876.513 354.278L877.452 352.126C874.748 352.146 871.115 353.56 870.189 350.775C868.043 353.123 866.958 354.354 865.601 355.786C865.812 356.634 867.903 356.669 866.152 358.315C864.128 357.584 864.128 357.584 865.601 355.786L864.216 354.332C864.718 352.42 866.821 350.098 865.455 348.664C865.463 348.463 866.344 347.785 866.766 347.391ZM857.999 437.706C857.944 437.022 854.889 437.717 857.141 435.76C858.59 435.609 859.077 436.121 857.921 437.625L857.999 437.706ZM871.947 357.708C871.534 357.807 871.14 357.832 870.804 357.782C870.467 357.732 870.198 357.609 870.021 357.423C869.844 357.238 869.765 356.996 869.791 356.719C869.818 356.444 869.948 356.143 870.171 355.844C870.559 355.763 870.925 355.747 871.237 355.799C871.55 355.852 871.8 355.971 871.967 356.146C872.134 356.321 872.212 356.547 872.195 356.805C872.178 357.063 872.066 357.344 871.869 357.626L871.947 357.708ZM871.43 361.556L871.826 360.787C872.254 360.827 872.647 360.911 872.995 361.038C872.995 361.038 872.815 361.477 872.704 361.709L871.43 361.556ZM864.454 405.455L863.455 405.523C863.738 405.148 864.081 404.781 864.474 404.431C864.474 404.431 865.066 404.356 865.372 404.329L864.454 405.455ZM866.872 409.596L866.475 410.365C866.034 410.325 865.634 410.234 865.287 410.093C865.287 410.093 865.467 409.655 865.578 409.423L866.872 409.596ZM968.856 556.785C969.106 556.63 969.738 556.595 969.774 556.704C969.844 557.011 969.83 557.35 969.735 557.707C969.429 557.734 968.895 557.871 968.858 557.764C968.795 557.459 968.795 557.13 968.856 556.785Z" fill="#84A17D"/>
<path d="M584.152 8.51686L582.692 9.98107L585.287 12.7057L584.38 15.0981L591.386 22.4515L590.42 24.7833L593.015 27.5072C591.345 29.657 593.412 30.8504 591.928 32.9169C593.418 33.7836 592.838 35.6141 592.968 36.936C593.59 38.3962 594.655 39.6324 596.117 40.5889L595.075 42.771L597.749 45.5774L596.796 47.5744L600.27 51.22L599.304 53.5517L604.592 59.1021L603.568 61.3724L614.301 72.6382L613.354 74.501L617.822 79.192L616.737 81.4671L621.186 86.1371L620.081 88.392L624.511 93.0418L623.406 95.2967L627.933 100.049L626.961 102.025L629.576 104.77L628.571 107.061L630.366 108.944L629.601 110.302C629.408 112.12 631.295 112.707 631.915 113.985L630.987 115.868L634.559 119.617L633.431 121.919C634.134 122.656 635.935 123.362 635.812 124.417C635.738 126.132 636.045 127.721 636.723 129.137C636.704 130.722 636.476 132.371 636.041 134.066L639.358 137.548L638.353 139.838L639.954 141.518L639.013 143.735C639.91 144.678 641.631 145.369 639.741 147.427L643 150.848L642.189 156.966L644.512 159.404L643.526 161.714L646.141 164.459L645.117 166.729L646.892 168.593L645.942 170.523L648.439 173.7L647.467 175.676C648.422 176.406 649.22 177.243 649.847 178.176C650.356 179.197 648.988 180.898 650.169 181.859C650.755 182.474 649.879 184.063 650.412 184.971C650.946 185.88 652.188 186.835 650.776 188.629L652.532 190.472L651.528 192.762L653.264 194.585L652.259 196.876L654.777 199.518C654.478 200.389 653.682 201.505 654.058 201.761C655.421 202.772 654.843 204.535 654.932 205.883C655.021 207.231 656.221 207.724 655.646 209.42C655.071 211.117 656.969 211.436 657.82 212.538L656.964 214.637L660.458 218.304L659.433 220.574L665.678 227.128L671.891 225.217L672.958 223.41L674.563 223.423C676.453 223.943 671.846 227.888 676.579 226.932L677.421 225.168L684.213 220.938L688.636 215.963L688.007 214.397L690.389 212.228L693.77 205.88C697.418 204.065 695.568 201.496 699.058 199.584C699.214 199.485 699.352 199.371 699.465 199.25C699.578 199.13 699.664 199.004 699.716 198.881C700.821 196.626 701.931 194.237 703.073 192.09C704.215 189.943 708.038 187.824 707.094 185.996C709.245 184.004 712.417 182.943 712.518 180.888C715.394 180.632 718.627 178.52 721.22 178.733L727.039 181.147L730.9 181.157L729.847 184.163L737.809 192.52L736.858 194.45L740.43 198.199L739.302 200.5C739.83 201.257 740.483 201.942 741.254 202.548C742.443 203.309 740.53 204.925 741.247 205.816C741.964 206.708 742.73 207.373 743.549 208.233L742.67 210.446L745.246 213.15L744.241 215.44L745.977 217.263L745.244 218.862C745.077 220.5 746.945 221.066 747.627 222.339L746.834 223.877C746.487 225.464 748.571 225.7 748.597 227.609C746.941 229.913 750.27 230.549 750.741 232.508C747.99 235.265 753.865 235.229 750.461 238.067L753.232 240.976L752.246 243.287L753.964 245.089L752.959 247.38L756.276 250.862C755.867 252.559 755.645 254.214 755.614 255.811C755.856 257.39 757.196 258.448 756.464 260.536C756.182 261.495 757.908 262.052 758.747 262.933L757.909 265.119L760.465 267.803L759.48 270.113L762.095 272.858L761.07 275.128L762.924 277.074L761.919 279.364L763.597 281.126L762.671 283.498C766.122 284.612 763.769 288.623 765.851 290.46C764.001 293.048 766.808 293.486 767.604 294.949L766.705 297.141L768.403 298.923L767.398 301.213L769.154 303.057L768.226 304.94L770.861 307.705L769.755 309.96L773.327 313.709L772.18 315.989L775.751 319.738L774.798 321.735L777.491 324.561L780.178 324.454L781.915 326.277L794.914 324.938C796.667 322.736 800.688 324.867 801.941 321.443C801.061 321.077 799.091 322.075 798.703 321.11C796.217 321.776 796.217 321.776 795.88 320.028C798.295 319.079 797.803 320.723 798.703 321.11L801.222 318.04L804.889 315.756L804.486 313.591C805.738 312.257 807.415 310.462 809.11 308.688C809.11 308.688 809.652 308.351 810.372 308.131L812.327 309.068L815.624 307.928L816.589 304.063C815.302 303.2 811.596 303.91 811.171 301.791L807.188 303.325C807.188 303.325 806.726 303.189 806.876 302.998L814.379 287.457C814.379 287.457 815.004 287.068 815.296 286.886C814.86 286.661 814.546 286.343 814.373 285.953C814.199 285.562 814.169 285.107 814.286 284.616C814.402 284.124 814.662 283.607 815.05 283.095C815.437 282.583 815.944 282.088 816.539 281.64L814.763 279.776C812.519 281.533 812.534 283.221 811.631 284.991C810.728 286.761 809.415 288.101 811.008 288.936L807.67 295.747L802.735 305.968L794.382 315.25L789.031 314.372L787.313 312.57L788.263 310.64L784.692 306.892L785.689 304.802L782.45 301.402L783.299 295.324L780.957 292.866L781.921 290.602L779.089 290.766C778.164 288.256 778.776 285.131 780.82 281.921L776.989 281.663L777.778 279.703L775.163 276.958L776.124 274.761L773.799 274.969L774.375 266.026L771.136 262.626C772.208 261.73 772.985 261.082 773.743 260.415C774.493 258.414 771.792 258.366 771.84 256.117L772.43 255.064C772.156 253.244 769.893 252.401 768.985 250.682L769.754 248.701L767.613 248.893C767.049 247.743 769.023 246.122 768.63 244.245L765.624 241.091L766.61 238.78L762.161 234.11L765.31 227.938L760.939 223.35L761.768 220.875L759.347 217.846L760.275 215.963L756.216 211.703L756.597 205.134C757.074 203.375 756.605 201.864 755.281 200.895C754.54 200.116 753.798 199.338 753.056 198.56L753.535 193.138L751.298 193.16C750.291 192.7 749.722 191.906 749.68 190.904C750.458 190.257 751.216 189.589 751.993 188.941C751.989 188.519 752.194 187.967 751.96 187.722C749.13 184.751 746.301 181.781 743.491 178.832L744.432 176.614C744.326 175.178 742.013 176.097 740.928 175.794L741.594 173.844L738.921 174.105L732.657 167.531L730.046 167.786L727.47 165.083C724.17 165.8 723.357 163.204 719.469 164.908C717.343 165.742 715.211 167.755 712.665 167.384L698.914 175.947C698.702 178.233 695.519 180.607 694.164 183.018C692.809 185.428 691.668 188.064 690.43 190.597C689.192 193.131 688.179 195.622 686.677 198.157C685.174 200.691 683.011 203.508 680.792 206.684C679.542 207.463 678.2 208.005 677.337 206.682L678.175 204.495L674.721 200.87L675.707 198.559L673.99 196.757L674.994 194.466L673.219 192.602L674.118 190.41C672.653 186.731 671.911 182.727 671.907 178.471L669.545 175.993C669.622 174.391 669.85 172.746 670.227 171.065C670.805 169.301 668.026 169.172 669.293 166.947C670.559 164.722 667.643 164.449 668.648 162.159C669.232 160.751 665.822 160.656 666.905 158.447C667.988 156.239 665.495 156.062 664.936 154.778C665.322 153.925 665.444 153.111 665.292 152.396C665.141 151.681 664.72 151.086 664.062 150.655L664.984 148.417L663.247 146.593L664.252 144.303L661.617 141.538L662.412 139.933C662.072 138.558 661.182 137.433 659.818 136.653L656.787 136.746L659.725 134.395L661.101 131.448L658.525 128.745L659.51 126.434L657.793 124.631L658.798 122.341L656.163 119.575L657.072 117.672L655.495 115.39L656.223 113.436C655.189 112.35 653.64 111.422 654.094 110.225C654.406 109.493 654.482 108.8 654.315 108.201C654.148 107.601 653.743 107.114 653.132 106.777C651.681 105.95 653.38 104.109 652.747 103.166C652.113 102.222 650.971 101.302 652.383 99.5091L649.729 96.7229L650.753 94.4535L648.977 92.589L649.947 90.6801L646.376 86.9311L647.461 84.6559L643.91 80.9279L644.995 78.6527L640.546 73.9828L641.54 71.9599L635.374 65.4869L636.34 63.156L633.803 60.4928L634.785 58.2492L628.56 51.7148L629.291 50.1826C629.383 49.9304 629.599 49.5997 629.501 49.497L619.744 39.2556L620.672 37.3718L616.047 32.5175L612.854 32.5806L613.402 28.9754L609.833 28.783L608.194 27.0625L609.152 24.9321L602.048 17.476L603.051 15.2526C601.995 14.702 602.256 13.2337 600.029 13.5442L598.762 15.7692L592.023 16.0821L596.574 10.9634L599.867 10.4468C601.052 9.25179 600.172 8.88553 599.395 8.48856C597.357 8.64864 596.117 10.2042 594.46 10.9747L591.438 11.3556L591.377 14.4287C588.571 14.4788 588.706 12.5998 587.277 11.7275L591.317 7.18768L594.268 8.12393C594.582 6.7058 594.239 5.46796 593.29 4.5883L595.811 2.49588C596.551 1.25159 596.049 0.585365 593.944 0.884514L592.994 2.81442L589.319 5.29897L587.552 7.83529C586.141 8.58397 584.766 9.44018 584.152 8.51686ZM804.86 308.757C804.616 307.734 803.766 307.121 806.08 306.692C805.783 307.245 805.369 307.8 804.857 308.335C805.028 308.435 805.137 308.58 805.174 308.757C805.211 308.934 805.174 309.138 805.067 309.35C804.96 309.563 804.786 309.776 804.561 309.973C804.336 310.169 804.066 310.342 803.776 310.476C802.681 312.255 801.422 314.031 800.01 315.792C799.136 316.16 798.254 316.492 797.369 316.784L798.901 313.513L803.776 310.476C803.13 309.867 803.504 309.145 804.86 308.757Z" fill="#84A17D"/>
<path d="M862.601 206.708L861.255 205.294C859.327 205.222 858.006 206.763 856.244 207.632L854.961 209.769L847.171 211.977C846.182 213.865 848.748 214.258 849.251 215.414C848.57 218.355 846.458 221.524 843.267 224.395L841.145 224.607L839.965 226.713L837.106 227.057L833.23 229.47C832.586 231.373 830.796 233.467 830.795 235.556L834.27 235.579L833.373 237.704L834.368 238.749L837.158 237.566L838.494 235.135L842.727 236.024L852.498 216.035C852.707 215.905 853.29 215.542 854.032 215.275C857.211 215.058 855.118 217.112 854.823 218.405L857.438 221.15L856.577 222.894C857.042 224.412 858.348 225.513 860.294 226.03C861.741 223.919 862.282 221.834 861.828 220.113L865.678 222.481L868.712 220.787L868.149 219.082L865.051 219.314L863.743 217.942L861.661 218.684L856.9 213.686L859.77 210.984L857.207 210.524C858.597 208.777 860.824 207.978 862.601 206.708ZM841.09 231.658L840.111 231.745C840.404 231.368 840.738 230.995 841.11 230.633C841.11 230.633 841.722 230.579 842.028 230.551L841.09 231.658Z" fill="#84A17D"/>
<path d="M869.923 331.193L868.943 333.37L870.738 335.254L877.671 333.123C881.643 330.323 879.272 328.601 880.277 326.311C880.723 325.315 879.392 324.545 878.189 324.119C875.897 325.546 877.681 325.676 877.696 326.319C877.711 326.962 877.097 327.084 876.456 327.875C874.475 326.563 873.47 324.741 871.751 323.494C868.274 326.116 871.429 327.546 868.738 329.809C868.485 330.032 869.494 330.742 869.923 331.193Z" fill="#84A17D"/>
<path d="M869.099 375.767C870.146 376.518 870.296 377.861 872.119 378.031C872.327 377.901 872.778 377.816 872.785 377.616L875.418 372.713L873.466 370.664L875.725 366.484L874.359 365.05C871.643 366.571 869.11 368.315 866.859 370.211L870.01 370.173C869.974 371.599 873.351 371.52 871.993 373.997L869.099 375.767Z" fill="#84A17D"/>
<path d="M876.162 289.515L879.084 291.676L881.927 290.2L882.201 285.819C881.823 285.014 881.051 284.421 879.972 284.106L877.783 286.547L875.032 285.682L872.907 287.005L872.469 291.423L876.162 289.515Z" fill="#84A17D"/>
<path d="M867.556 257.343C867.112 257.783 866.187 258.554 866.285 258.657C867.82 259.92 864.069 263.3 868.145 263.536L865.347 267.987L868.723 271.531C869.168 271.091 869.962 270.531 869.953 270.243C869.997 268.616 869.752 267.104 869.715 265.463C869.539 265.279 870.542 264.589 870.986 264.149L868.781 261.834L869.761 259.657L867.556 257.343Z" fill="#84A17D"/>
<path d="M870.984 264.15L873.286 266.567L876.728 265.37L878.202 259.948L875.595 261.115L872.269 260.412C870.481 261.95 874.243 262.414 870.984 264.15Z" fill="#84A17D"/>
<path d="M825.221 258.348L823.426 256.464C820.634 259.247 820.55 261.878 818.781 264.481C819.418 265.846 820.678 265.845 822.728 264.372C823.38 262.269 822.164 260.644 825.221 258.348Z" fill="#84A17D"/>
<path d="M869.196 299.694C869.633 296.832 869.626 294.091 869.173 291.517C869.076 291.414 868.584 291.525 868.3 291.506C865.35 293.637 866.925 294.941 866.553 296.641C866.181 298.341 866.297 299.509 866.151 301.167L869.196 299.694Z" fill="#84A17D"/>
<path d="M832.345 265.824C834.637 264.396 833.527 263.162 834.866 262.198C834.127 260.308 829.497 262.277 829.854 259.934L827.896 261.153L827.55 263.718L830.159 263.529L832.345 265.824Z" fill="#84A17D"/>
<path d="M862.675 232.707L861.476 235.282L865.08 233.559C865.757 231.343 863.245 231.145 863.129 228.932C863.27 228.453 864.885 226.664 862.267 226.564C860.634 227.777 860.753 228.878 860.06 229.962L862.675 232.707Z" fill="#84A17D"/>
<path d="M874.361 215.703C872.605 213.86 871.297 212.487 869.405 210.989L867.452 214.653L870.448 214.941C872.108 215.638 868.675 218.167 870.873 218.593C871.174 218.611 871.487 218.613 871.808 218.598C873.528 217.756 872.508 216.824 874.361 215.703Z" fill="#84A17D"/>
<path d="M872.219 239.523C874.222 240.789 868.928 242.062 870.097 243.358C871.212 243.414 872.314 242.271 873.598 241.667C875.018 241.088 876.453 240.588 877.884 240.172L879.2 237.721C878.361 236.84 876.219 238.076 875.345 237.577L872.219 239.523Z" fill="#84A17D"/>
<path d="M817.254 285.667L819.379 284.343L821.881 278.607L818.822 278.881L816.539 281.641L817.67 282.829L817.254 285.667Z" fill="#84A17D"/>
<path d="M867.097 310.109C864.738 312.72 866.007 314.541 865.514 316.741C865.4 317.04 866.271 317.118 866.77 317.362C868.603 316.22 868.139 315.106 869.016 314.005C866.595 313.555 870.744 310.383 868.095 310.042C867.775 310.041 867.441 310.063 867.097 310.109Z" fill="#84A17D"/>
<path d="M867.555 257.342C867.847 257.161 868.388 256.823 868.43 256.797C869.314 254.133 868.791 251.795 866.961 250.238C865.086 251.406 865.55 252.52 864.335 253.963L867.555 257.342Z" fill="#84A17D"/>
<path d="M865.619 333.156C861.936 335.841 864.429 337.552 863.077 339.896C862.836 340.34 863.838 340.695 864.599 341.494L866.093 339.16C867.322 337.383 865.35 336.359 866.846 334.514C867.104 334.157 866.048 333.607 865.619 333.156Z" fill="#84A17D"/>
<path d="M865.923 326.993C865.332 327.649 864.79 328.314 864.3 328.983C863.961 329.629 863.684 330.271 863.473 330.902L865.619 333.155C866.119 332.844 866.527 332.296 866.91 331.862C867.293 331.427 868.061 330.492 868.616 329.82L865.923 326.993Z" fill="#84A17D"/>
<path d="M844.529 220.215L843.632 219.272C841.334 219.3 839.866 220.965 837.902 222.318L838.554 223.838C839.119 223.798 839.724 223.673 840.331 223.469C840.938 223.264 841.537 222.986 842.093 222.649C842.648 222.312 843.15 221.923 843.568 221.506C843.986 221.088 844.313 220.649 844.529 220.215Z" fill="#84A17D"/>
<path d="M826.425 253.128L827.83 254.603C830.189 253.525 830.466 251.656 832.63 250.373L831.729 249.009C831.198 249.078 830.853 249.065 830.525 249.139C827.653 249.818 828.542 252.005 826.425 253.128Z" fill="#84A17D"/>
<path d="M868.112 283.855C867.498 284.943 867.178 286.009 867.171 286.985C867.164 287.961 867.471 288.826 868.071 289.527C869.821 288.437 869.541 287.306 870.337 286.191L868.112 283.855Z" fill="#84A17D"/>
<path d="M826.403 253.109L824.627 251.245C824.033 251.692 823.527 252.186 823.142 252.697C822.756 253.208 822.499 253.725 822.386 254.215C822.273 254.705 822.307 255.157 822.486 255.544C822.665 255.932 822.985 256.245 823.425 256.465C823.869 256.025 824.333 255.606 824.758 255.146C825.182 254.685 825.867 253.802 826.403 253.109Z" fill="#84A17D"/>
<path d="M829.853 259.936L833.737 258.855L835.152 255.95C832.669 256.061 830.967 257.969 828.956 258.993L829.853 259.936Z" fill="#84A17D"/>
<path d="M866.021 327.097C867.938 325.903 867.498 324.675 868.547 323.337L867.107 322.243C865.19 323.437 865.429 324.594 864.674 325.683L866.021 327.097Z" fill="#84A17D"/>
<path d="M838.074 245.841L834.198 248.254L835.974 250.118L839.808 247.731L838.074 245.841Z" fill="#84A17D"/>
<path d="M868.112 283.855C870.029 282.662 869.609 281.455 870.658 280.116L869.217 279.022C867.3 280.216 867.539 281.373 866.785 282.463L868.112 283.855Z" fill="#84A17D"/>
<path d="M874.089 277.165C876.005 275.971 875.586 274.764 876.615 273.405L872.364 273.474C871.707 275.711 873.48 276.108 874.089 277.165Z" fill="#84A17D"/>
<path d="M822.705 291.247C820.884 292.61 820.591 293.837 820.406 295.454L824.19 293.293L822.705 291.247Z" fill="#84A17D"/>
<path d="M867.543 249.877C867.747 247.791 867.747 247.791 865.575 246.696C864.109 248.85 866.476 249.105 867.543 249.877Z" fill="#84A17D"/>
<path d="M862.205 206.498C863.836 207.375 863.496 209.317 866.321 208.798C867.194 207.275 865.808 206.866 865.119 206.282C864.807 205.955 863.531 206.358 862.205 206.498Z" fill="#84A17D"/>
<path d="M872.219 239.524C871.3 239.117 871.793 237.472 869.377 238.422C869.693 240.216 869.692 240.216 872.219 239.524Z" fill="#84A17D"/>
<path d="M866.057 240.162C865.867 239.629 865.565 239.148 865.159 238.731C865.042 238.608 864.155 238.932 863.638 239.156C863.121 239.38 863.208 239.75 863.306 239.853C863.403 239.955 864.295 240.542 864.829 240.894L866.057 240.162Z" fill="#84A17D"/>
<path d="M871.594 250.227C871.085 251.784 871.489 252.347 873.058 252.252C874.813 250.539 873.663 250.308 871.594 250.227Z" fill="#84A17D"/>
<path d="M881.246 265.233C882.719 263.435 882.719 263.435 880.696 262.704C878.944 264.35 881.055 264.406 881.246 265.233Z" fill="#84A17D"/>
<path d="M881.244 265.233C879.812 267.006 879.812 267.006 881.817 267.716C883.588 266.091 881.476 266.035 881.244 265.233Z" fill="#84A17D"/>
<path d="M880.801 274.452C882.232 272.68 882.232 272.68 880.228 271.97C878.496 273.636 880.568 273.651 880.801 274.452Z" fill="#84A17D"/>
<path d="M835.993 250.139C834.52 251.937 834.52 251.937 836.524 252.647C838.276 251.002 836.223 251.007 835.993 250.139Z" fill="#84A17D"/>
<path d="M829.424 243.036C827.255 243.408 826.132 244.042 825.495 245.254C827.263 245.785 828.239 244.72 829.424 243.036Z" fill="#84A17D"/>
<path d="M825.224 258.348L826.999 260.212L828.958 258.992C828.735 258.474 828.33 258.049 827.768 257.743C827.161 257.663 826.066 258.117 825.224 258.348Z" fill="#84A17D"/>
<path d="M827.416 283.091C825.247 283.462 824.125 284.096 823.488 285.309C825.255 285.84 826.232 284.775 827.416 283.091Z" fill="#84A17D"/>
<path d="M863.702 217.968C865.175 216.169 865.175 216.169 863.151 215.438C861.608 216.954 863.7 216.99 863.702 217.968Z" fill="#84A17D"/>
<path d="M865.953 225.28L866.89 224.174C866.793 224.071 866.098 224.178 865.992 224.276C865.592 224.636 865.236 225.011 864.932 225.393L865.953 225.28Z" fill="#84A17D"/>
<path d="M867.097 229.267C867.038 229.623 867.032 229.966 867.076 230.291C867.076 230.291 867.688 230.236 867.994 230.209C868.052 229.852 868.059 229.509 868.014 229.185C868.014 229.185 867.402 229.239 867.097 229.267Z" fill="#84A17D"/>
<path d="M879.383 247.529L878.384 247.596C878.336 247.95 878.33 248.293 878.364 248.621C878.364 248.621 878.976 248.566 879.282 248.538L879.383 247.529Z" fill="#84A17D"/>
<path d="M879.983 254.498L881.161 252.459C878.889 252.862 879.697 253.501 879.983 254.498Z" fill="#84A17D"/>
<path d="M879.892 253.707L878.715 255.746C880.986 255.343 880.178 254.704 879.892 253.707Z" fill="#84A17D"/>
<path d="M842.01 217.084L843.16 217.314C843.271 217.082 843.57 216.7 843.45 216.644C843.103 216.503 842.703 216.412 842.262 216.372L842.01 217.084Z" fill="#84A17D"/>
<path d="M873.655 257.265C873.134 257.39 872.608 257.564 872.09 257.782C872.09 257.782 871.848 258.226 871.738 258.458C872.264 258.326 872.795 258.16 873.322 257.961C873.322 257.961 873.544 257.497 873.655 257.265Z" fill="#84A17D"/>
<path d="M880.776 274.077L879.448 276.307C881.85 275.693 881.042 275.054 880.776 274.077Z" fill="#84A17D"/>
<path d="M873.985 268.482L873.047 269.588C873.256 269.458 873.798 269.61 873.945 269.485C874.345 269.126 874.701 268.751 875.006 268.368L873.985 268.482Z" fill="#84A17D"/>
<path d="M879.924 281.2L878.986 282.306C879.292 282.279 879.737 282.328 879.885 282.204C880.277 281.854 880.62 281.487 880.903 281.112L879.924 281.2Z" fill="#84A17D"/>
<path d="M874.042 276.769L872.864 278.808C874.928 278.534 874.225 277.797 874.042 276.769Z" fill="#84A17D"/>
<path d="M868.675 271.136L867.498 273.175C869.561 272.902 868.878 272.185 868.675 271.136Z" fill="#84A17D"/>
<path d="M867.205 276L868.479 276.153C868.59 275.921 868.889 275.539 868.811 275.457C868.434 275.353 868.029 275.277 867.601 275.231L867.205 276Z" fill="#84A17D"/>
<path d="M838.077 246.262L839.296 244.197C836.983 244.626 837.852 245.26 838.077 246.262Z" fill="#84A17D"/>
<path d="M832.491 242.072L832.114 242.861C832.635 242.73 833.16 242.556 833.679 242.344C833.679 242.344 833.962 241.874 834.073 241.642L832.491 242.072Z" fill="#84A17D"/>
<path d="M830.482 238.852L829.544 239.958C829.869 239.951 830.356 239.974 830.503 239.85C830.876 239.489 831.211 239.116 831.502 238.738L830.482 238.852Z" fill="#84A17D"/>
<path d="M873.375 293.143L872.396 293.23C872.338 293.587 872.331 293.93 872.376 294.254C872.376 294.254 872.968 294.179 873.294 294.172L873.375 293.143Z" fill="#84A17D"/>
<path d="M597.261 4.92312L596.884 5.71225C597.419 5.57157 597.958 5.38965 598.49 5.16893C598.49 5.16893 598.731 4.72504 598.842 4.49219L597.261 4.92312Z" fill="#84A17D"/>
<path d="M880.146 304.919L879.769 305.708C880.289 305.583 880.816 305.409 881.334 305.191C881.334 305.191 881.575 304.747 881.686 304.515L880.146 304.919Z" fill="#84A17D"/>
<path d="M825.735 249.478L826.913 247.438C824.641 247.842 825.449 248.481 825.735 249.478Z" fill="#84A17D"/>
<path d="M880.443 307.736L879.505 308.843C879.755 308.687 880.298 308.839 880.445 308.714C880.838 308.365 881.181 307.998 881.463 307.623L880.443 307.736Z" fill="#84A17D"/>
<path d="M825.689 249.082C824.355 249.912 823.962 250.614 824.628 251.244C826.022 250.408 826.355 249.712 825.689 249.082Z" fill="#84A17D"/>
<path d="M589.66 1.33398C589.14 1.4593 588.613 1.63315 588.095 1.85145C588.095 1.85145 587.854 2.29531 587.702 2.55322C588.243 2.40607 588.787 2.23143 589.328 2.03011C589.328 2.03011 589.549 1.56603 589.66 1.33398Z" fill="#84A17D"/>
<path d="M581.858 3.81082L584.464 3.68953C584.975 2.06526 583.553 3.08156 581.858 3.81082Z" fill="#84A17D"/>
<path d="M580.648 0.451167L580.252 1.22006C580.78 1.07453 581.309 0.908789 581.837 0.722829C581.837 0.722829 582.1 0.232046 582.211 0L580.648 0.451167Z" fill="#84A17D"/>
<path d="M873.467 309.404L872.447 309.518C872.388 309.875 872.382 310.217 872.427 310.542C872.427 310.542 873.019 310.467 873.344 310.46L873.467 309.404Z" fill="#84A17D"/>
<path d="M832.362 265.422L831.123 267.466C833.437 267.037 832.528 266.363 832.362 265.422Z" fill="#84A17D"/>
<path d="M826.997 260.213C826.081 260.784 825.206 261.329 826.041 261.788C826.197 261.951 827.256 261.39 827.895 261.155L826.997 260.213Z" fill="#84A17D"/>
<path d="M584.136 8.91895L585.375 6.875C583.19 7.15879 583.912 7.91719 584.136 8.91895Z" fill="#84A17D"/>
<path d="M583.136 3.33984L580.552 3.41503C579.999 5.06524 581.441 4.06914 583.136 3.33984Z" fill="#84A17D"/>
<path d="M875.078 314.374L874.057 314.488C873.995 314.832 873.996 315.161 874.059 315.465C874.059 315.465 874.629 315.437 874.935 315.409L875.078 314.374Z" fill="#84A17D"/>
<path d="M877.48 339.542L878.7 337.478C876.445 337.968 877.294 338.581 877.48 339.542Z" fill="#84A17D"/>
<path d="M877.489 338.786L876.27 340.851C878.583 340.422 877.775 339.783 877.489 338.786Z" fill="#84A17D"/>
<path d="M815.83 278.035L817.008 275.996C814.736 276.399 815.485 276.977 815.83 278.035Z" fill="#84A17D"/>
<path d="M877.431 342.836L876.433 342.903C876.375 343.26 876.368 343.603 876.413 343.927C876.413 343.927 877.025 343.873 877.331 343.845L877.431 342.836Z" fill="#84A17D"/>
<path d="M823.687 289.558L824.906 287.493C822.593 287.922 823.443 288.535 823.687 289.558Z" fill="#84A17D"/>
<path d="M814.763 279.776C816.097 278.946 816.449 278.27 815.783 277.641C814.43 278.451 814.055 279.173 814.763 279.776Z" fill="#84A17D"/>
<path d="M871.26 339.565L869.986 339.412C870.084 339.515 869.576 340.027 869.695 340.083C870.043 340.21 870.436 340.294 870.864 340.334L871.26 339.565Z" fill="#84A17D"/>
<path d="M823.682 289.137C822.307 289.993 821.955 290.669 822.621 291.299C823.974 290.489 824.348 289.766 823.682 289.137Z" fill="#84A17D"/>
<path d="M815.296 286.886C815.744 287.358 816.135 287.768 817.309 286.84C817.643 286.633 817.299 286.063 817.254 285.667L815.296 286.886Z" fill="#84A17D"/>
<path d="M868.961 347.328L871.545 347.253C872.098 345.603 870.656 346.599 868.961 347.328Z" fill="#84A17D"/>
<path d="M816.098 291.282L817.295 289.264C814.982 289.693 815.832 290.306 816.098 291.282Z" fill="#84A17D"/>
<path d="M869.601 347.092C868.997 346.457 868.101 346.492 866.765 347.39C867.328 348.051 868.121 348.046 869.601 347.092Z" fill="#84A17D"/>
<path d="M865.601 342.894C865.076 343.012 864.543 343.179 864.016 343.391C864.016 343.391 863.733 343.861 863.642 344.113C864.178 343.959 864.715 343.777 865.249 343.57C865.249 343.57 865.49 343.126 865.601 342.894Z" fill="#84A17D"/>
<path d="M816.027 290.511L814.849 292.55C817.198 292.229 816.293 291.487 816.027 290.511Z" fill="#84A17D"/>
<path d="M818.349 298.66L817.994 299.403C818.514 299.277 819.041 299.103 819.559 298.885C819.559 298.885 819.8 298.441 819.911 298.209L818.349 298.66Z" fill="#84A17D"/>
<path d="M813.402 295.768L812.464 296.874C812.77 296.847 813.257 296.87 813.363 296.772C813.762 296.412 814.118 296.037 814.423 295.654L813.402 295.768Z" fill="#84A17D"/>
<path d="M871.164 390.896C872.497 390.066 872.849 389.39 872.183 388.76C870.83 389.57 870.456 390.293 871.164 390.896Z" fill="#84A17D"/>
<path d="M871.119 390.5L869.9 392.565C872.213 392.136 871.405 391.497 871.119 390.5Z" fill="#84A17D"/>
<path d="M871.931 396.163L872.327 395.395C871.807 395.521 871.28 395.694 870.762 395.913C870.762 395.913 870.521 396.357 870.369 396.615L871.931 396.163Z" fill="#84A17D"/>
<path d="M856.538 401.539C855.58 402.137 854.747 402.656 855.582 403.114C855.738 403.278 856.797 402.716 857.436 402.482L856.538 401.539Z" fill="#84A17D"/>
<path d="M871.151 434.018L873.777 433.917C874.288 432.293 872.846 433.289 871.151 434.018Z" fill="#84A17D"/>
<path d="M264.736 569.461C265.656 569.365 266.59 568.752 267.565 569.808C267.424 570.336 267.424 570.937 267.186 571.262C265.391 573.338 263.672 575.491 261.922 577.647C259.725 579.869 257.38 581.849 254.908 583.572L253.051 587.669L246.129 593.369C245.91 593.457 245.672 593.482 245.432 593.443L244.021 593.291C243.496 592.231 243.003 591.168 242.471 590.066C241.009 591.806 238.601 592.273 238.157 595.535L240.873 596.58C240.757 597.063 240.763 597.706 240.518 597.989C239.322 599.187 238.196 600.493 237.148 601.902C236.344 603.251 235.308 604.324 234.106 605.051C232.691 605.839 231.529 607.164 230.753 608.877C229.93 610.979 227.819 610.686 227.197 612.638C226.575 614.59 225.489 613.246 224.642 613.593C224.632 612.715 224.489 611.827 224.222 610.977C223.937 610.407 223.192 610.185 222.752 610.059C222.334 608.86 222.312 607.319 221.127 608.772C221.643 609.262 222.187 609.693 222.752 610.059C222.898 611.287 223.094 612.512 223.341 613.728C222.159 613.596 222.124 615.186 221.503 615.937C220.882 616.688 220.84 618.237 219.626 618.106C219.169 616.868 219.836 614.997 218.199 614.44C217.953 617.124 217.953 617.124 219.626 618.106C219.988 619.355 219.523 619.876 218.802 620.209L217.531 620.728L215.525 624.498L211.021 624.97C210.471 626.258 209.849 627.484 209.159 628.639C208.466 629.285 207.726 629.85 206.948 630.33C203.444 633.613 199.584 636.291 196.377 640.015C195.228 641.294 193.378 639.815 192.623 641.738C191.867 643.662 189.641 643.252 189.15 645.619C188.659 647.987 186.9 647.27 186.07 648.73C185.24 650.189 183.294 650.522 182.636 652.649C181.978 654.776 179.674 654.29 179.105 656.364C175.093 656.486 173.398 660.995 168.876 663.356L164.436 663.821L163.143 666.016L152.9 667.09L150.989 665.232L148.135 665.532C147.7 665.173 147.367 664.624 147.207 664.001C147.046 663.377 147.072 662.729 147.277 662.191C151.023 647.561 151.506 646.353 155.182 639.92C155.051 639.306 154.952 638.685 154.884 638.065C154.837 637.769 155.127 637.567 155.401 637.067L158.033 636.79C158.255 636.768 158.398 636.452 158.568 636.306C158.671 635.137 158.805 633.965 158.883 632.842L160.373 632.686L165.45 624.134C168.397 623.61 168.036 618.545 170.852 617.606C171.077 617.54 171.311 617.515 171.55 617.533L174.044 612.983L177.28 607.026C179.636 607.036 180.032 604.078 181.107 602.336C182.181 600.593 182.908 598.287 184.965 597.643C185.726 597.563 185.967 595.651 186.606 594.812C188.329 592.486 188.871 588.828 191.454 587.442C194.037 586.056 193.684 581.247 196.672 580.976L203.283 568.318L204.964 568.142C206.601 564.885 208.957 562.398 211.775 560.952L215.8 552.682L217.005 552.556C218.96 549.863 219.746 545.921 222.109 544.172C224.473 542.423 225.15 539.007 226.873 536.682C227.029 536.452 227.082 535.975 227.272 535.955C229.429 535.728 229.732 532.395 231.203 531.511C232.373 530.675 233.383 529.537 234.179 528.154C236.026 525.602 236.699 521.757 239.509 520.176C241.757 518.911 241.739 513.981 244.714 513.626L250.179 503.275C253.636 502.912 253.284 497.503 256.238 496.422C258.617 495.572 258.303 490.201 261.495 489.995C262.903 486.918 264.622 484.131 266.612 481.696C268.58 479.221 270.295 476.423 271.723 473.355C273.342 470.784 274.684 467.898 276.181 465.169L280.98 456.088L282.756 455.902C282.797 454.954 282.547 453.393 282.991 452.747C285.045 449.872 284.815 445.223 287.061 442.542L282.439 440.068L278.697 440.461L276.755 438.607L266.607 439.671L265.711 441.523L256.958 442.441L255.81 444.535L251.783 444.957L250.142 447.187L244.718 447.757L243.204 449.974L239.145 450.4L237.725 452.608L233.666 453.033L232.374 455.227L229.551 455.523L228.259 457.717L225.436 458.013L224.123 460.081C222.823 460.217 221.27 459.78 220.476 460.464C219.114 461.895 217.458 462.82 215.652 463.157C214.164 466.143 210.966 466.307 209.569 469.455L206.651 469.762L205.61 471.715L202.48 472.3C201.955 474.457 200.469 474.441 198.521 474.56C197.97 476.044 197.224 477.368 196.312 478.48C195.438 479.258 194.207 479.43 193.753 481.021L189.472 481.471C187.59 484.412 184.622 485.41 182.752 488.222C180.129 487.554 179.013 491.444 175.939 490.781L174.872 495.181L170.908 495.597C170.24 498.669 167.881 499.645 166.288 501.571C165.698 502.319 164.561 502.266 163.245 502.705C161.001 506.314 158.185 509.229 154.949 511.294C153.026 512.7 151.328 514.529 149.918 516.711C148.867 518.039 147.671 519.159 146.357 520.043L142.13 520.83L142.08 524.137C141.467 524.315 140.869 524.55 140.29 524.84C139.912 525.094 139.78 525.88 139.415 526.218C138.759 526.707 138.074 527.137 137.365 527.505L135.557 530.911C134.395 532.105 131.992 530.599 131.474 533.398C129.005 534.737 126.893 536.868 125.314 539.619C124.443 540.865 123.376 541.85 122.168 542.522C120.042 543.946 118.111 545.778 116.185 547.438C113.891 548.814 112.018 551.043 110.77 553.882C108.609 554.693 106.777 556.38 105.516 558.721C104.187 561.09 101.7 561.866 100.821 564.831C98.6587 563.814 98.9208 568.462 96.7515 567.402L93.4973 573.448C90.9154 573.032 89.4867 575.584 87.6081 576.939C85.5828 578.02 83.8056 579.666 82.3864 581.774C81.0914 584.355 78.724 585.075 77.4992 587.691C76.2744 590.307 73.6625 590.709 73.0331 593.82L68.5931 594.286L62.9647 604.825L59.7933 605.158L59.4651 608.538L54.5201 612.487L54.8586 614.596C52.9002 615.75 51.164 617.385 49.732 619.422C48.5888 621.943 46.0428 621.953 45.2823 624.649C45.1166 625.224 44.8329 626.068 44.484 626.105C42.0421 626.361 41.9355 630.317 39.96 630.868C37.9844 631.418 38.191 634.312 35.7213 635.601L35.3407 635.641C34.3566 637.707 33.2739 639.682 32.098 641.556C30.9213 643.266 30.7135 645.99 28.3439 646.496C26.8851 646.649 27.0232 650.322 25.0841 650.697C23.1449 651.072 23.4099 654.732 21.1625 655.397C19.5789 655.777 18.3499 657.964 16.7475 659.634L14.2738 659.894L12.9813 662.087L10.1905 662.38L8.9162 664.487C7.2062 664.28 5.6401 665.774 3.9287 664.152C3.9929 662.945 5.2775 662.51 4.5899 661.038C5.4622 660.646 6.6195 660.825 5.3385 659.072C5.0507 659.697 4.8005 660.354 4.5899 661.038C3.9276 661.061 3.2713 661.13 2.6236 661.245L0 658.56L1.5376 655.483L3.1767 656.855C4.6686 655.333 6.2618 653.976 7.9427 652.796C8.9216 652.264 9.1194 651.086 9.8107 650.369C10.502 649.654 9.1744 646.405 11.5212 646.159C12.4092 646.066 13.0378 644.156 13.7566 643.009C14.4753 641.861 16.2784 641.844 16.8368 639.898C17.3937 638.333 18.0363 636.832 18.7603 635.408L22.2806 635.038L22.4411 632.019C23.2472 630.011 24.2948 628.21 25.5498 626.676L29.4106 628.63C30.8748 627.104 29.8293 625.412 29.792 623.572C30.0278 623.033 30.2211 622.026 30.7242 621.545C32.4562 620.209 33.897 618.361 34.9497 616.127C37.1379 615.898 37.7014 613.179 38.8396 611.431C39.234 610.874 40.1944 611.031 40.6205 610.472C42.0758 608.69 42.5419 605.767 44.6832 604.642C46.8244 603.517 46.8385 599.184 49.249 598.331C51.6596 597.477 51.1549 593.328 53.8049 593.565C54.7641 592.183 55.5999 590.658 56.2993 589.015C56.8962 587.108 58.7623 587.684 59.4497 585.939C60.1371 584.195 60.6025 582.474 62.4597 582.793C62.8325 580.696 64.6443 580.934 65.5331 579.641C66.2705 578.198 67.2222 576.98 68.3418 576.044C70.5337 574.786 72.4849 573 74.1052 570.765C75.536 568.428 77.8129 567.545 78.9992 564.891C79.7031 563.081 80.9203 561.751 82.4286 561.144C84.1095 560.967 84.2628 558.506 85.7668 558.434C87.2709 558.362 87.2314 556.308 88.0859 555.404C88.6039 554.889 89.1554 554.43 89.7358 554.03C90.8711 553.268 91.4362 551.364 93.0105 551.328C94.1033 549.138 95.5376 547.299 97.236 545.91C98.222 544.82 98.676 543.229 100.257 542.634C101.839 542.039 101.664 539.142 103.549 538.429C104.707 538.007 105.087 535.351 106.159 534.596C107.23 533.84 108.288 533.601 108.622 532.065L111.794 531.732C112.814 529.876 114.085 528.294 115.557 527.049C117.195 525.805 118.786 524.266 120.456 523.018C122.126 521.771 122.031 518.564 124.418 518.572C125.493 516.228 127.596 515.665 129.124 514.133C130.651 512.6 132.294 511.184 133.815 509.609C135.587 508.494 137.174 506.997 138.52 505.171C140.454 505.567 140.607 503.107 141.562 502.021C142.376 501.104 143.26 500.294 144.204 499.599C145.904 498.368 147.509 496.952 149.007 495.365C150.371 494.021 151.426 492.152 152.897 490.668C158.562 485.786 164.174 480.565 170.068 475.701C171.22 474.382 172.635 473.483 174.195 473.082C175.336 472.962 176.253 471.236 177.413 470.428C178.573 469.62 179.608 467.024 180.965 466.839C182.78 466.503 184.437 465.546 185.775 464.062C187.18 462.716 188.794 461.748 190.54 461.203C192.086 460.174 193.467 458.813 194.634 457.172C196.126 456.037 197.549 454.771 198.894 453.38C200.211 451.74 203.069 453.671 203.485 450.239C206.069 451.468 206.955 447.945 209.046 447.512C211.082 447.067 212.816 445.616 213.907 443.442C216.686 443.88 217.959 439.758 220.874 440.438L222.148 438.332L224.971 438.036L226.263 435.842L229.086 435.546L230.095 433.595L235.898 432.987L236.529 431.891C236.647 431.622 236.769 431.18 236.928 431.163C239.084 430.937 240.481 428.989 242.359 428.235C243.341 428.003 244.349 427.897 245.372 427.919L246.685 425.852L250.871 425.413L252.163 423.218L256.445 422.769L257.737 420.575L264.904 419.823L265.87 418.007L277.826 416.752L279.218 418.193L280.515 416.427L282.283 417.999L286.66 417.54L288.602 419.395L291.456 419.096L297.686 425.56L299.777 438.592C298.828 442.723 297.956 446.33 297.193 450.013C296.962 452.038 296.647 454.033 296.249 455.987C295.549 457.631 294.714 459.156 293.754 460.537C293.152 461.462 292.635 462.479 292.21 463.573C291.974 464.654 291.853 465.792 291.85 466.955L290.233 467.124C288.938 469.104 288.474 472.241 285.835 471.874L286.289 474.7C283.652 479.565 280.81 484.366 278.322 489.559C276.973 492.402 274.34 493.279 273.151 496.32C271.914 499.285 270.433 502.041 268.732 504.545C267.775 506.018 266.103 506.45 265.259 508.426C264.746 510.066 263.832 511.39 262.643 512.217C261.31 512.957 260.546 515.224 259.577 516.827C258.646 518.239 257.812 519.761 257.083 521.377C256.396 523.121 254.491 522.507 253.971 524.491C253.156 527.449 249.994 527.438 249.346 530.636C248.699 533.835 246.022 533.43 245.012 535.98C243.84 538.628 242.506 541.133 241.023 543.474C240.362 544.126 239.618 544.638 238.816 544.992L234.784 552.62C231.896 553.309 231.497 557.253 229.62 559.422C228.551 559.192 228.066 560.186 227.44 561.11C226.757 561.761 225.99 562.26 225.163 562.592L225.501 564.7C224.693 566.501 222.725 566.493 222.035 568.623C221.544 570.02 220.875 571.277 220.053 572.348C219.815 572.673 218.814 572.264 218.658 572.494C217.127 576.214 213.954 577.748 212.14 581.111C210.428 581.292 210.157 583.421 209.338 584.751C208.52 586.08 206.994 585.211 206.492 587.107C205.99 589.004 204.11 589.545 203.058 591.027L203.308 592.587C202.165 595.133 200.615 597.291 198.749 598.941C196.909 600.335 196.637 604.266 194.041 604.967C193.66 605.007 193.524 605.965 193.204 606.384C190.96 609.278 190.508 614.3 186.979 615.614L181.835 625.159L177.162 628.995C176.874 630.612 176.481 632.582 176.296 634.446C175.43 634.88 174.266 634.658 175.554 636.453C175.83 635.806 176.078 635.136 176.296 634.446C177.247 634.346 178.389 634.227 179.848 634.073L181.232 630.24C182.96 629.758 184.05 629.515 185.074 629.065C185.296 629.042 185.236 628.062 185.306 627.497L188.668 627.144C193.6 621.309 200.196 618.601 204.252 611.529L206.98 611.243L208.247 609.094L211.577 608.745L213.358 603.97L216.929 606.125C219.103 606.23 221.222 605.819 223.184 604.911L221.212 602.674C221.924 600.884 223.46 602.009 224.801 600.925L225.801 599.319L228.972 598.986L228.961 595.9C227.163 594.545 225.84 595.541 224.435 595.431C224.381 595.094 224.293 594.546 224.286 594.504C226.363 592.57 228.47 590.634 230.598 588.824C230.884 588.794 231.477 589.075 231.98 589.193C232.044 591.203 230.732 592.069 230.215 593.667C231.553 594.77 232.255 594.525 233.885 592.424L236.581 592.141C236.921 590.648 238.376 590.067 237.994 588.091L240.807 585.523L245.067 589.364C248.02 588.027 250.34 585.232 251.58 581.519C249.166 579.393 246.464 578.012 243.711 577.499C243.587 576.695 243.662 575.895 243.926 575.218C244.189 574.541 244.626 574.023 245.172 573.744C247.223 573.057 247.91 570.712 248.967 569.057L251.821 568.757L253.039 566.7C254.934 568.259 256.266 571.336 259.356 569.897C258.82 572.783 258.511 574.274 258.218 576.063C257.327 576.542 255.817 575.371 255.617 577.536C257.686 578.177 257.686 578.177 258.218 576.063L260.469 575.826C261.786 574.187 262.33 571.343 264.55 571.11C264.719 570.964 264.691 569.981 264.736 569.461ZM191.948 638.335C192.584 637.883 194.137 640.121 194.256 637.45C193.364 636.515 192.572 636.598 192.074 638.323L191.948 638.335ZM252.049 573.794C252.256 574.1 252.511 574.343 252.793 574.499C253.075 574.657 253.373 574.723 253.661 574.694C253.948 574.664 254.216 574.537 254.438 574.327C254.661 574.117 254.832 573.829 254.935 573.491C254.733 573.212 254.488 572.992 254.221 572.85C253.954 572.709 253.673 572.649 253.402 572.678C253.131 572.706 252.878 572.821 252.664 573.013C252.451 573.205 252.283 573.469 252.176 573.781L252.049 573.794ZM249.05 576.81L249.443 576.04C249.105 575.823 248.754 575.659 248.397 575.55C248.397 575.55 248.14 575.962 248.016 576.19L249.05 576.81ZM215.589 611.841L216.236 612.458C216.364 612.032 216.443 611.576 216.471 611.105C216.471 611.105 216.117 610.713 215.925 610.519L215.589 611.841ZM210.258 613.386L209.866 614.156C210.213 614.381 210.575 614.544 210.944 614.644C210.944 614.644 211.2 614.23 211.325 614.003L210.258 613.386ZM9.4157 659.159C9.375 658.906 8.9585 658.521 8.8384 658.576C8.5206 658.754 8.2336 659.002 7.9885 659.309C8.1809 659.503 8.439 659.905 8.5591 659.85C8.8701 659.67 9.1577 659.438 9.4157 659.159Z" fill="#416262"/>
<path d="M760.947 491.412L760.698 493.282L756.481 493.724L755.03 495.936L743.644 497.13L742.288 499.33L738.071 499.773C737.371 502.248 734.866 501.91 734.108 504.22C732.297 503.981 731.106 505.607 729.858 506.466C728.141 507.144 726.307 507.409 724.437 507.25L723.265 509.388L718.92 509.844L717.847 511.801L712.202 512.393L710.846 514.593L702.252 515.496L700.991 517.686L683.549 519.517L682.589 521.375L675.327 522.137L674.105 524.367L666.874 525.125L665.684 527.352L658.485 528.107L657.294 530.333L649.937 531.105L648.896 533.058L644.646 533.504L643.354 535.698L640.436 536.004L639.79 537.402C638.337 538.797 636.489 538.133 634.932 538.683L633.941 540.545L628.138 541.154L626.922 543.426C625.781 543.545 623.89 543.015 623.053 543.832C621.606 545.086 619.999 546.035 618.281 546.648C616.908 547.78 615.628 549.076 614.453 550.523L609.062 551.089L607.769 553.283L605.169 553.556L603.895 555.662C602.436 555.815 600.615 555.32 600.151 557.856L594.855 558.412L590.077 563.201L586.303 563.597L584.979 565.795L580.73 566.24L579.469 568.431L576.583 568.734L575.567 570.642L571.023 571.462L569.982 573.414C568.668 573.384 567.373 573.519 566.113 573.821C564.86 574.252 564.34 576.237 562.664 576.241C561.712 576.341 560.941 577.965 559.77 578.303C558.599 578.64 556.884 578.606 556.314 580.68L553.46 580.98L552.168 583.175L549.345 583.471L548.053 585.665L543.962 586.093C543.411 586.881 542.998 588.124 542.508 588.09C540.66 588.026 539.527 589.604 538.285 590.506C537.043 591.408 535.763 591.07 534.686 592.599C533.61 594.127 531.988 593.268 530.423 593.561L529.192 595.533L523.515 596.129L522.254 598.32L512.106 599.385L509.384 594.482L510.21 592.594L509.064 591.685C507.273 590.972 507.079 596.396 504.569 593.014L505.517 591.285L504.414 584.411L505.636 578.365L507.451 577.617L507.664 574.722L510.825 568.3C509.833 564.931 513.387 564.172 512.592 560.824C512.569 560.666 512.57 560.506 512.596 560.356C512.622 560.206 512.672 560.068 512.742 559.951C513.933 557.725 515.237 555.401 516.307 553.231C517.378 551.06 516.528 547.375 518.794 546.623C519.015 543.984 517.701 541.42 519.425 539.91C517.617 538.084 517.177 534.742 515.157 533.41L508.932 531.791L506.192 529.591L504.308 532.318L491.369 533.676L490.353 535.584L484.55 536.193L483.334 538.465C482.299 538.698 481.238 538.809 480.163 538.797C478.657 538.655 478.596 540.891 477.31 541.112C476.023 541.333 474.899 541.365 473.568 541.505L472.255 543.572L468.069 544.011L466.776 546.205L463.954 546.501L463.074 548.052C461.759 549.304 459.943 548.637 458.348 549.148L457.563 550.689C456.421 552.009 454.741 550.985 453.053 552.319C452.208 554.895 449.299 553.442 447.253 554.557C446.786 558.08 442.663 554.696 442.588 558.649L438.085 559.121L436.761 561.319L433.97 561.612L432.678 563.806L427.286 564.371C426.091 565.805 424.801 567.102 423.427 568.25C421.874 569.228 420.001 569.21 418.693 571.105C418.054 571.944 416.346 571.352 414.983 571.495L413.663 573.52L409.508 573.956L408.184 576.153L403.935 576.599L402.674 578.79L399.661 579.106L398.369 581.3L395.641 581.586L394.222 583.793C390.807 582.608 388.963 586.789 385.885 586.898C384.929 589.786 382.561 588.491 380.719 589.069L379.438 591.134L376.679 591.423L375.386 593.617L372.532 593.916L371.541 595.778L367.26 596.228L366.069 598.455L360.266 599.063L359.082 601.331L353.278 601.94L352.205 603.897L347.829 604.356L346.023 602.745L343.2 603.04L335.18 594.662C335.866 592.103 331.159 591.311 333.268 588.173C334.21 588.417 334.73 590.25 335.849 589.789C337.023 591.682 337.023 591.682 338.791 590.638C337.913 588.586 336.823 590.03 335.849 589.789L336.753 586.177L336.157 582.466L338.335 581.166C338.617 579.507 339.001 577.28 339.353 575.056C339.353 575.056 339.265 574.507 338.948 573.94L336.747 573.485L335.412 570.795L338.11 567.51C339.775 567.635 341.775 570.255 343.928 569.001L345.403 572.362C345.403 572.362 345.849 572.53 345.91 572.309L354.196 557.031C354.196 557.031 354.095 556.398 354.047 556.103C354.552 556.192 355.052 556.148 355.516 555.971C355.981 555.794 356.399 555.489 356.747 555.075C357.094 554.661 357.363 554.146 357.537 553.563C357.71 552.979 357.785 552.34 357.756 551.683L360.642 551.38C360.692 553.905 359.206 555.09 358.296 556.858C357.387 558.626 357.143 560.324 355.286 560.004L351.69 566.729L346.24 576.777L344.029 588.116L348.581 590.555L351.371 590.262L352.387 588.354L358.191 587.745L359.313 585.698L364.578 585.145L369.292 580.363L373.098 579.963L374.397 577.811L376.256 579.546C379.105 578.299 381.406 575.741 382.768 572.302L385.702 574.309L386.858 572.472L391.108 572.027L392.351 569.924L393.813 571.4L401.226 564.747L406.491 564.195C406.516 562.948 406.533 562.047 406.581 561.14C407.801 559.298 409.752 560.808 411.685 559.19L412.189 558.108C413.974 556.977 416.312 557.675 418.457 556.978L419.645 555.139L420.992 556.498C422.397 556.008 422.419 553.733 424.338 552.631L429.222 552.118L430.546 549.921L437.776 549.162L440.947 542.997L448.051 542.252L449.629 540.028L453.989 539.27L454.98 537.408L461.577 536.716L467.052 531.854C468.254 530.338 469.906 529.537 471.69 529.608C472.895 529.482 474.101 529.355 475.306 529.229L479.709 525.122L481.271 526.416C482.385 526.667 483.483 526.431 484.389 525.746C484.405 524.844 484.453 523.938 484.47 523.036C484.841 522.739 485.179 522.232 485.56 522.193C490.158 521.71 494.756 521.227 499.323 520.749L500.598 518.642C501.928 517.688 502.76 519.659 503.793 520.065L505.026 518.306L506.688 520.019L516.868 518.951L518.491 520.624L522.677 520.185C524.383 522.579 527.227 521.209 528.486 524.636C529.26 526.441 529.007 529.084 531.133 530.276L533.367 544.193C531.517 545.931 531.692 549.429 530.542 551.909C529.392 554.388 527.893 556.904 526.553 559.403C525.213 561.902 523.75 564.242 522.596 566.894C521.441 569.545 520.508 572.773 519.298 576.288C519.502 577.553 519.976 578.704 521.744 578.261L523.063 576.236L528.676 575.647L530.001 573.45L532.791 573.157L534.084 570.963L536.97 570.66L538.251 568.596C542.505 566.832 546.531 564.424 550.256 561.418L554.093 561.016C555.44 559.839 556.718 558.545 557.921 557.141C559.055 555.564 561.133 557.061 562.183 554.764C563.233 552.467 565.534 553.94 566.826 551.746C567.645 550.417 570.14 552.299 571.306 550.119C572.471 547.938 574.389 549.237 575.907 548.65C576.38 547.826 577.006 547.181 577.738 546.762C578.47 546.343 579.288 546.163 580.13 546.234L581.436 544.124L584.259 543.828L585.552 541.634L589.833 541.185L590.674 539.596C592.118 538.817 593.731 538.531 595.377 538.759L597.439 540.558L597.419 537.216L599.022 534.345L603.208 533.906L604.532 531.709L607.323 531.416L608.616 529.222L612.897 528.773L613.92 526.908L617.03 526.196L618.225 524.397C619.906 524.221 621.813 524.45 622.538 523.344C622.957 522.649 623.51 522.115 624.152 521.787C624.795 521.459 625.508 521.345 626.234 521.456C627.982 521.701 628.391 519.428 629.665 519.123C630.938 518.818 632.551 518.82 633.12 516.745L637.433 516.292L638.694 514.102L641.58 513.799L642.564 511.895L648.368 511.286L649.59 509.056L655.362 508.45L656.584 506.221L663.815 505.462L664.881 503.464L674.902 502.412L676.258 500.212L680.381 499.779L681.648 497.631L691.765 496.569L692.588 495.068C692.745 494.837 692.881 494.479 693.039 494.463L708.896 492.799L709.887 490.937L717.403 490.148L719.606 492.018L722.371 489.155L725.063 491.06L727.727 490.78L728.913 488.726L740.457 487.515L741.692 485.37C742.92 485.584 744.019 484.397 745.323 485.89L744.273 488.187L748.764 492.262L750.023 486.039L748.147 483.792C748.354 482.269 749.296 482.514 750.193 482.677C751.494 483.956 751.011 485.764 751.508 487.256L753.312 489.254L750.668 491.461C752.608 493.102 754.156 491.696 755.929 491.895L757.042 486.376L754.137 485.35C755.156 484.168 756.48 483.489 757.921 483.41L757.968 480.489C758.533 479.186 759.471 479.002 760.697 480.417L759.681 482.325L760.107 486.182L759.138 488.986C759.482 490.322 759.705 491.713 760.947 491.412ZM342.299 577.534C343.366 576.95 344.503 577.002 343.242 575.376C342.969 575.937 342.776 576.566 342.67 577.238C342.461 577.21 342.257 577.251 342.076 577.355C341.895 577.459 341.743 577.624 341.633 577.835C341.523 578.046 341.459 578.297 341.447 578.565C341.434 578.833 341.473 579.109 341.561 579.37C340.78 581.253 340.117 583.23 339.576 585.282C339.871 586.042 340.205 586.781 340.575 587.492L342.353 584.304L341.561 579.37C342.551 579.308 342.919 578.584 342.299 577.534Z" fill="#416262"/>
<path d="M390.72 472.363L392.908 472.134C394.334 473.185 393.921 475.03 394.407 476.651L393.445 478.896L397.022 484.911C396.07 486.811 393.912 485.623 392.546 486.152C390.455 488.621 389.176 492.069 388.922 495.923L390.237 497.287L389.23 499.451L390.951 501.328L391.58 505.25C390.372 506.964 389.806 509.468 387.98 510.946L385.503 508.976L384.278 510.991L382.661 511.161L381.723 508.729L382.904 506.246L379.134 504.455L389.706 484.734C389.672 484.523 389.577 483.933 389.286 483.32C387.228 481.349 386.911 483.999 385.989 485.081L381.739 485.528L380.823 487.253C379.167 488.06 377.28 488.092 375.452 487.345C376.276 485.025 377.716 483.242 379.542 482.285L374.749 481.758L374.085 478.826L375.975 477.941L377.962 479.877L380.087 479.655L380.911 481.369L388.649 480.557L388.982 477.006L391.196 478.146C391.741 476.116 390.866 474.278 390.72 472.363ZM384.109 502.303L384.725 502.925C384.849 502.491 384.938 502.037 384.991 501.568C384.991 501.568 384.606 501.18 384.414 500.986L384.109 502.303Z" fill="#416262"/>
<path d="M276.67 556.202L275.459 558.301L272.541 558.608L269.503 553.137C269.143 548.886 272.325 549.025 273.618 546.83C274.173 545.871 275.788 546.088 277.011 546.474C277.383 548.794 276.009 547.866 275.436 548.312C274.863 548.759 275.191 549.195 274.952 550.121C277.5 550.325 279.804 549.612 282.11 549.713C282.275 553.555 278.794 552.763 278.718 555.901C278.702 556.203 277.368 556.129 276.67 556.202Z" fill="#416262"/>
<path d="M238.269 588.192C236.872 588.125 235.592 588.988 234.154 588.066C234.12 587.855 233.876 587.538 234.045 587.392L236.472 582.42L239.644 582.087L241.703 577.84L243.923 577.607C244.512 580.235 244.779 582.916 244.713 585.544L242.517 583.716C241.295 584.744 238.977 582.758 237.771 585.286L238.269 588.192Z" fill="#416262"/>
<path d="M308.709 523.164L304.752 523.022L304.034 520.353L307.671 517.098C308.643 516.745 309.707 516.767 310.745 517.162L310.158 520.14L312.86 521.099L313.205 523.25L309.652 526.625L308.709 523.164Z" fill="#416262"/>
<path d="M342.931 505.335C342.861 505.9 342.84 506.975 342.681 506.991C340.491 507.007 340.187 511.541 337.099 509.378L335.184 514.124L329.697 514.7C329.768 514.136 329.696 513.285 329.954 513.086C331.346 511.911 332.841 510.982 334.303 509.842C334.589 509.813 334.483 508.752 334.553 508.187L338.137 507.811L339.348 505.711L342.931 505.335Z" fill="#416262"/>
<path d="M334.555 508.189L330.813 508.582L329.426 505.768L333.125 501.092L333.948 503.407L336.915 504.811C336.834 506.921 333.768 505.098 334.555 508.189Z" fill="#416262"/>
<path d="M371.988 530.249L374.905 529.943C374.445 533.508 372.204 535.415 371.179 538.268C369.534 538.869 368.644 538.147 368.482 535.934C369.861 534.075 372.142 533.62 371.988 530.249Z" fill="#416262"/>
<path d="M304.732 534.344C306.926 532.071 309.328 530.138 311.9 528.576C312.058 528.559 312.309 528.919 312.527 529.067C312.749 532.26 310.495 532.282 309.271 533.697C308.047 535.112 306.944 535.871 305.597 537.127L304.732 534.344Z" fill="#416262"/>
<path d="M360.412 531.463C360.04 529.144 361.904 528.905 361.801 527.458C363.976 526.544 365.527 530.583 367.325 528.722L367.643 530.704L365.644 532.715L363.964 531.09L360.412 531.463Z" fill="#416262"/>
<path d="M367.929 490.705L366.526 493.212L365.483 489.933C366.943 487.978 368.893 489.275 370.91 487.777C371.229 487.357 371.652 485.169 373.59 486.595C373.684 488.386 372.637 489.096 372.179 490.26L367.929 490.705Z" fill="#416262"/>
<path d="M374.537 472.001C377.391 471.702 379.516 471.479 382.164 471.502L380.34 475.209L377.97 473.7C376.187 473.243 376.402 476.995 374.475 476.039C374.247 475.88 374.025 475.702 373.81 475.509C373.331 473.929 374.866 473.854 374.537 472.001Z" fill="#416262"/>
<path d="M355.219 490.069C352.696 489.819 355.325 493.745 353.366 493.994C352.528 493.396 352.749 491.958 352.369 490.797C351.871 489.576 351.294 488.402 350.645 487.289L351.859 484.804C353.222 484.661 353.656 486.759 354.711 486.906L355.219 490.069Z" fill="#416262"/>
<path d="M353.729 554.121L353.384 551.971L356.631 546.483L358.555 548.426L357.756 551.683L355.917 551.876L353.729 554.121Z" fill="#416262"/>
<path d="M297.108 542.909C296.492 546.104 294.003 546.666 292.427 548.503C292.246 548.78 291.562 548.337 290.996 548.225C290.698 546.37 292.001 545.847 292.344 544.568C294.45 545.633 294.289 541.018 296.461 542.292C296.688 542.473 296.905 542.68 297.108 542.909Z" fill="#416262"/>
<path d="M342.932 505.336C342.885 505.041 342.797 504.492 342.79 504.45C344.496 502.061 346.91 500.707 349.565 500.651C349.87 502.55 348.567 503.072 348.165 504.787L342.932 505.336Z" fill="#416262"/>
<path d="M277.996 560.051C278.252 564.055 274.993 563.839 273.899 566.27C273.682 566.722 272.663 566.4 271.426 566.529L272.41 564.025C273.096 562.066 275.385 562.469 275.942 560.31C276.071 559.909 277.299 560.124 277.996 560.051Z" fill="#416262"/>
<path d="M283.171 555.52C283.016 556.321 282.818 557.101 282.578 557.855C282.253 558.505 281.888 559.117 281.485 559.684L277.997 560.05C277.916 559.544 278.106 558.923 278.215 558.398C278.324 557.871 278.599 556.771 278.795 555.978L283.171 555.52Z" fill="#416262"/>
<path d="M391.685 492.247L393.144 492.094C394.745 493.426 394.327 495.443 394.532 497.523L392.742 498.226C392.377 497.873 392.059 497.439 391.808 496.947C391.557 496.456 391.378 495.916 391.279 495.361C391.181 494.805 391.166 494.244 391.236 493.709C391.306 493.175 391.458 492.677 391.685 492.247Z" fill="#416262"/>
<path d="M375.702 525.87L373.419 526.109C372.693 523.999 374.132 522.519 373.723 520.374L375.554 519.925C375.869 520.277 376.124 520.465 376.292 520.705C377.729 522.827 375.187 523.865 375.702 525.87Z" fill="#416262"/>
<path d="M319.351 523.766C318.833 524.885 318.128 525.822 317.279 526.516C316.431 527.21 315.457 527.647 314.419 527.799C314.135 526.028 315.322 525.388 315.735 524.145L319.351 523.766Z" fill="#416262"/>
<path d="M375.734 525.87L378.62 525.566C378.649 526.222 378.575 526.861 378.4 527.443C378.226 528.024 377.956 528.537 377.607 528.948C377.259 529.358 376.839 529.659 376.374 529.831C375.909 530.002 375.409 530.041 374.905 529.945C374.975 529.379 375.014 528.818 375.117 528.25C375.219 527.681 375.507 526.665 375.734 525.87Z" fill="#416262"/>
<path d="M367.324 528.723L365.523 525.739L367.063 522.876C368.722 524.374 368.256 526.695 368.783 528.57L367.324 528.723Z" fill="#416262"/>
<path d="M283.012 555.537C282.701 553.596 284.085 552.979 284.514 551.434L286.489 551.484C286.8 553.424 285.62 554.105 285.2 555.307L283.012 555.537Z" fill="#416262"/>
<path d="M373.838 514.058L374.468 517.98L371.582 518.282L370.959 514.402L373.838 514.058Z" fill="#416262"/>
<path d="M319.351 523.765C319.039 521.825 320.392 521.211 320.821 519.665L322.796 519.715C323.107 521.656 321.927 522.336 321.507 523.539L319.351 523.765Z" fill="#416262"/>
<path d="M320.977 515.617C320.665 513.676 322.018 513.063 322.479 511.514L325.424 513.992C323.932 515.95 322.331 515.217 320.977 515.617Z" fill="#416262"/>
<path d="M344.994 554.95C345.09 556.956 344.224 557.99 342.941 559.239L342.155 555.549L344.994 554.95Z" fill="#416262"/>
<path d="M349.471 500.063C351.15 498.471 351.15 498.471 353.644 498.939C352.797 501.3 350.9 500.127 349.471 500.063Z" fill="#416262"/>
<path d="M391.183 472.443C389.263 472.129 387.805 473.697 386.262 471.715C386.976 470.139 388.314 470.642 389.311 470.624C389.819 470.57 390.368 471.584 391.183 472.443Z" fill="#416262"/>
<path d="M355.219 490.069C356.225 490.306 357.315 488.862 358.192 490.914C356.4 492.003 356.4 492.003 355.219 490.069Z" fill="#416262"/>
<path d="M359.017 494.043C359.618 493.775 360.251 493.608 360.904 493.545C361.094 493.525 361.438 494.261 361.608 494.715C361.777 495.169 361.392 495.381 361.233 495.398C361.075 495.415 359.931 495.32 359.245 495.263L359.017 494.043Z" fill="#416262"/>
<path d="M346.3 497.995C345.298 499.388 344.519 499.555 343.494 498.59C343.751 496.376 344.765 496.87 346.3 497.995Z" fill="#416262"/>
<path d="M326.35 503.088C326.882 500.974 326.882 500.974 328.952 501.614C328.751 503.779 327.209 502.612 326.35 503.088Z" fill="#416262"/>
<path d="M326.352 503.089C325.814 505.161 325.814 505.161 323.776 504.517C323.945 502.356 325.486 503.523 326.352 503.089Z" fill="#416262"/>
<path d="M318.603 509.861C319.141 507.789 319.141 507.789 321.179 508.433C320.946 510.602 319.468 509.427 318.603 509.861Z" fill="#416262"/>
<path d="M371.55 518.286C371.019 520.4 371.019 520.4 368.98 519.756C369.181 517.591 370.628 518.769 371.55 518.286Z" fill="#416262"/>
<path d="M382.408 517.02C383.616 518.523 383.856 519.612 383.246 520.834C381.531 520.199 381.772 518.888 382.408 517.02Z" fill="#416262"/>
<path d="M371.986 530.247L369.1 530.55L368.782 528.568C369.393 528.329 370.051 528.26 370.717 528.365C371.215 528.656 371.593 529.602 371.986 530.247Z" fill="#416262"/>
<path d="M348.796 546.49C350.005 547.992 350.244 549.082 349.634 550.304C347.92 549.669 348.161 548.358 348.796 546.49Z" fill="#416262"/>
<path d="M380.093 479.696C380.625 477.582 380.625 477.582 382.695 478.223C382.46 480.177 380.95 479.006 380.093 479.696Z" fill="#416262"/>
<path d="M372.107 483.58L372.411 482.262C372.57 482.245 372.968 482.718 372.957 482.848C372.925 483.331 372.849 483.799 372.73 484.244L372.107 483.58Z" fill="#416262"/>
<path d="M367.811 485.745C367.54 486.031 367.245 486.277 366.93 486.481C366.93 486.481 366.545 486.093 366.352 485.899C366.623 485.613 366.918 485.367 367.234 485.163C367.234 485.163 367.619 485.551 367.811 485.745Z" fill="#416262"/>
<path d="M343.152 491.635L343.799 492.253C343.524 492.531 343.229 492.777 342.918 492.989C342.918 492.989 342.533 492.6 342.341 492.406L343.152 491.635Z" fill="#416262"/>
<path d="M336.632 496.22L337.582 494.104C338.836 495.688 337.706 495.678 336.632 496.22Z" fill="#416262"/>
<path d="M337.388 495.712L336.438 497.827C335.184 496.243 336.314 496.254 337.388 495.712Z" fill="#416262"/>
<path d="M396.205 491.473L395.19 490.979C395.315 490.751 395.438 490.309 395.571 490.338C395.94 490.437 396.302 490.601 396.649 490.826L396.205 491.473Z" fill="#416262"/>
<path d="M338.688 501.794C338.946 502.18 339.166 502.604 339.341 503.054C339.341 503.054 339.124 503.506 338.999 503.734C338.742 503.339 338.513 502.918 338.313 502.476C338.313 502.476 338.563 502.021 338.688 501.794Z" fill="#416262"/>
<path d="M318.948 509.61L317.937 511.946C316.776 510.138 317.906 510.148 318.948 509.61Z" fill="#416262"/>
<path d="M328.644 509.537L328.339 510.856C328.306 510.644 327.789 510.442 327.794 510.269C327.826 509.787 327.902 509.318 328.021 508.873L328.644 509.537Z" fill="#416262"/>
<path d="M313.321 515.133L313.017 516.452C312.825 516.257 312.467 516.038 312.472 515.866C312.499 515.394 312.578 514.939 312.706 514.512L313.321 515.133Z" fill="#416262"/>
<path d="M321.356 515.363L320.406 517.478C319.185 516.105 320.327 515.986 321.356 515.363Z" fill="#416262"/>
<path d="M330.077 514.448L329.127 516.564C327.907 515.19 329.017 515.074 330.077 514.448Z" fill="#416262"/>
<path d="M326.862 518.729L325.827 518.109C325.952 517.881 326.075 517.44 326.202 517.427C326.559 517.569 326.911 517.747 327.255 517.96L326.862 518.729Z" fill="#416262"/>
<path d="M373.467 514.354L374.411 512.196C375.671 513.822 374.503 513.774 373.467 514.354Z" fill="#416262"/>
<path d="M381.082 514.584L380.658 515.357C380.405 514.967 380.186 514.543 380.004 514.096C380.004 514.096 380.215 513.603 380.34 513.375L381.082 514.584Z" fill="#416262"/>
<path d="M385.319 513.456L385.014 514.774C384.79 514.584 384.426 514.322 384.43 514.149C384.483 513.681 384.572 513.226 384.696 512.792L385.319 513.456Z" fill="#416262"/>
<path d="M307.507 527.323L308.123 527.944C307.852 528.23 307.557 528.476 307.241 528.68C307.241 528.68 306.888 528.289 306.664 528.098L307.507 527.323Z" fill="#416262"/>
<path d="M754.821 481.377L754.397 482.15C754.141 481.745 753.919 481.307 753.736 480.847C753.736 480.847 753.954 480.395 754.079 480.168L754.821 481.377Z" fill="#416262"/>
<path d="M292.42 531.779L291.996 532.553C291.738 532.166 291.518 531.742 291.342 531.291C291.342 531.291 291.56 530.84 291.685 530.612L292.42 531.779Z" fill="#416262"/>
<path d="M379.382 523.682L380.333 521.567C381.587 523.151 380.456 523.141 379.382 523.682Z" fill="#416262"/>
<path d="M289.746 533.601L289.441 534.92C289.401 534.667 288.884 534.464 288.889 534.292C288.917 533.82 288.996 533.364 289.123 532.938L289.746 533.601Z" fill="#416262"/>
<path d="M379.761 523.43C379.977 524.779 379.642 525.501 378.62 525.565C378.365 524.177 378.739 523.494 379.761 523.43Z" fill="#416262"/>
<path d="M763.334 483.184C763.592 483.569 763.812 483.994 763.988 484.444C763.988 484.444 763.77 484.896 763.652 485.165C763.398 484.752 763.167 484.317 762.96 483.866C762.96 483.866 763.209 483.411 763.334 483.184Z" fill="#416262"/>
<path d="M766.685 489.397L764.948 487.82C766.007 486.38 766.124 487.912 766.685 489.397Z" fill="#416262"/>
<path d="M770.478 487.711L770.086 488.481C769.84 488.077 769.611 487.657 769.4 487.223C769.4 487.223 769.643 486.726 769.768 486.499L770.478 487.711Z" fill="#416262"/>
<path d="M293.22 538.769L293.843 539.432C293.572 539.718 293.277 539.964 292.961 540.168C292.961 540.168 292.608 539.776 292.384 539.585L293.22 538.769Z" fill="#416262"/>
<path d="M360.751 531.169L359.839 533.323C358.579 531.697 359.811 531.739 360.751 531.169Z" fill="#416262"/>
<path d="M369.101 530.552C369.25 531.48 369.392 532.365 368.4 532.212C368.147 532.238 367.889 531.237 367.642 530.705L369.101 530.552Z" fill="#416262"/>
<path d="M760.606 491.706L761.518 489.552C762.815 491.002 761.641 491.125 760.606 491.706Z" fill="#416262"/>
<path d="M766.192 488.332L767.954 489.863C766.902 491.345 766.753 489.816 766.192 488.332Z" fill="#416262"/>
<path d="M287.734 541.362L288.357 542.026C288.099 542.305 287.811 542.537 287.5 542.717C287.5 542.717 287.122 542.37 286.93 542.176L287.734 541.362Z" fill="#416262"/>
<path d="M264.024 557.786L264.968 555.628C266.134 557.264 264.997 557.212 264.024 557.786Z" fill="#416262"/>
<path d="M264.68 557.246L263.736 559.403C262.475 557.777 263.606 557.788 264.68 557.246Z" fill="#416262"/>
<path d="M361.41 549.54L362.361 547.424C363.615 549.008 362.579 548.988 361.41 549.54Z" fill="#416262"/>
<path d="M261.178 560.143L261.825 560.761C261.555 561.046 261.259 561.292 260.944 561.497C260.944 561.497 260.559 561.108 260.367 560.914L261.178 560.143Z" fill="#416262"/>
<path d="M345.777 553.195L346.721 551.038C347.981 552.664 346.844 552.611 345.777 553.195Z" fill="#416262"/>
<path d="M360.642 551.38C360.425 550.031 360.767 549.352 361.788 549.287C362.037 550.633 361.67 551.359 360.642 551.38Z" fill="#416262"/>
<path d="M268.403 561.357L269.438 561.978C269.279 561.995 269.19 562.647 269.057 562.618C268.699 562.51 268.348 562.345 268.011 562.128L268.403 561.357Z" fill="#416262"/>
<path d="M346.149 552.9C346.372 554.292 346.029 554.971 345.008 555.036C344.76 553.689 345.127 552.965 346.149 552.9Z" fill="#416262"/>
<path d="M354.047 556.104C353.318 556.18 352.683 556.247 352.664 554.919C352.61 554.582 353.351 554.376 353.729 554.122L354.047 556.104Z" fill="#416262"/>
<path d="M263.239 568.16L261.478 566.63C262.53 565.148 262.678 566.676 263.239 568.16Z" fill="#416262"/>
<path d="M349.636 558.752L350.554 556.641C351.815 558.267 350.678 558.214 349.636 558.752Z" fill="#416262"/>
<path d="M262.992 567.629C263.975 567.525 264.578 568.062 264.738 569.461C263.761 569.606 263.204 569.15 262.992 567.629Z" fill="#416262"/>
<path d="M269.494 566.947C269.761 567.33 269.992 567.753 270.179 568.204C270.179 568.204 269.968 568.698 269.812 568.929C269.568 568.513 269.347 568.078 269.151 567.626C269.151 567.626 269.369 567.174 269.494 566.947Z" fill="#416262"/>
<path d="M350.361 558.248L349.41 560.363C348.03 558.792 349.319 558.786 350.361 558.248Z" fill="#416262"/>
<path d="M341.591 562.683L341.192 563.41C340.934 563.025 340.714 562.6 340.538 562.15C340.538 562.15 340.756 561.698 340.881 561.471L341.591 562.683Z" fill="#416262"/>
<path d="M347.619 563.466L347.314 564.784C347.122 564.59 346.757 564.328 346.769 564.198C346.801 563.715 346.877 563.246 346.996 562.802L347.619 563.466Z" fill="#416262"/>
<path d="M223.577 597.71C223.361 596.36 223.703 595.681 224.725 595.617C224.973 596.963 224.606 597.688 223.577 597.71Z" fill="#416262"/>
<path d="M223.955 597.455L223.012 599.612C221.751 597.986 222.881 597.997 223.955 597.455Z" fill="#416262"/>
<path d="M218.428 600.995L218.821 600.225C219.079 600.611 219.299 601.036 219.475 601.486C219.475 601.486 219.257 601.937 219.139 602.207L218.428 600.995Z" fill="#416262"/>
<path d="M224.611 613.597C224.767 614.567 224.902 615.41 223.91 615.257C223.657 615.283 223.399 614.281 223.152 613.749L224.611 613.597Z" fill="#416262"/>
<path d="M185.873 628.208L184.105 626.636C185.164 625.195 185.312 626.723 185.873 628.208Z" fill="#416262"/>
</svg>
