<svg width="21" height="10" viewBox="0 0 21 10" fill="none" xmlns="http://www.w3.org/2000/svg">
<g clip-path="url(#clip0_1_221)">
<path d="M19.1798 3.77312L15.7029 0.341984C15.2257 -0.102793 14.4758 -0.102793 13.9986 0.278444C13.5213 0.723221 13.5213 1.42216 13.9304 1.86693L15.9075 3.83666H1.72714C1.0454 3.83666 0.5 4.34498 0.5 4.98037C0.5 5.61577 1.0454 6.12409 1.72714 6.12409H15.9756L13.9986 8.09381C13.5213 8.53859 13.5895 9.23752 14.0667 9.6823C14.2713 9.87292 14.6121 10 14.8848 10C15.2257 10 15.4984 9.87292 15.7711 9.6823L19.248 6.25116C19.8616 5.48869 19.8616 4.47206 19.1798 3.77312Z" fill="#575445"/>
</g>
<defs>
<clipPath id="clip0_1_221">
<rect width="20" height="10" fill="white" transform="translate(0.5)"/>
</clipPath>
</defs>
</svg>
