<svg width="48" height="48" viewBox="0 0 48 48" fill="none" xmlns="http://www.w3.org/2000/svg">
<path d="M48 24C48 37.2548 37.2548 48 24 48C10.7452 48 0 37.2548 0 24C0 10.7452 10.7452 0 24 0C37.2548 0 48 10.7452 48 24Z" fill="#66CB9F"/>
<path d="M13.0038 15C13.0038 14.4477 13.4533 14 14.0077 14H26.0538C26.6083 14 27.0577 14.4477 27.0577 15H13.0038Z" fill="white"/>
<path fill-rule="evenodd" clip-rule="evenodd" d="M34.5 19.5H13.5V31.5H34.5V19.5ZM13.5 18C12.6716 18 12 18.6716 12 19.5V31.5C12 32.3284 12.6716 33 13.5 33H34.5C35.3284 33 36 32.3284 36 31.5V19.5C36 18.6716 35.3284 18 34.5 18H13.5Z" fill="white"/>
<path d="M31.5 19.5C31.5 21.1569 32.8432 22.5 34.5 22.5V19.5H31.5Z" fill="white"/>
<path d="M16.5 19.5C16.5 21.1569 15.1569 22.5 13.5 22.5V19.5H16.5Z" fill="white"/>
<path d="M31.5 31.5C31.5 29.8431 32.8432 28.5 34.5 28.5V31.5H31.5Z" fill="white"/>
<path d="M16.5 31.5C16.5 29.8431 15.1569 28.5 13.5 28.5V31.5H16.5Z" fill="white"/>
<path d="M27 25.5C27 27.1569 25.6569 28.5 24 28.5C22.3431 28.5 21 27.1569 21 25.5C21 23.8431 22.3431 22.5 24 22.5C25.6569 22.5 27 23.8431 27 25.5Z" fill="white"/>
</svg>
