<svg width="64" height="64" viewBox="0 0 64 64" fill="none" xmlns="http://www.w3.org/2000/svg">
<rect width="64" height="64" rx="32" fill="#575445"/>
<path d="M32.7933 29.3202L32.877 29.3261C32.9875 29.3423 33.092 29.3941 33.1667 29.505L37.9267 36.2508L39.14 34.3565C39.2333 34.2178 39.3733 34.1254 39.5133 34.1254C39.6533 34.1254 39.7933 34.1716 39.8867 34.3102L44.1333 40.4093H45.5333C45.8133 40.4093 46 40.5941 46 40.8713C46 41.1485 45.8133 41.3334 45.5333 41.3334H18.4667C18.1867 41.3334 18 41.1485 18 40.8713C18 40.5941 18.1867 40.4093 18.4667 40.4093H19.82L25 31.4918C25.0933 31.3532 25.2333 31.2607 25.42 31.2607C25.6067 31.2607 25.7467 31.3532 25.84 31.4918L28.3133 35.4654L32.42 29.505C32.5133 29.4126 32.6533 29.3202 32.7933 29.3202ZM32.7467 30.6601L28.5933 36.6205C28.5467 36.7129 28.36 36.8053 28.22 36.8053C28.08 36.8053 27.94 36.7129 27.8467 36.5743L25.42 32.6469L20.8933 40.4555H42.92L39.42 35.4654L38.2067 37.3598C38.1133 37.4984 37.9733 37.5908 37.8333 37.5908C37.6933 37.5908 37.5533 37.5446 37.46 37.406L32.7467 30.6601ZM41.3333 22.6667C43.0133 22.6667 44.3667 24.0066 44.3667 25.67C44.3667 27.3334 43.0133 28.6733 41.3333 28.6733C39.6533 28.6733 38.3 27.3334 38.3 25.67C38.3 24.0066 39.6533 22.6667 41.3333 22.6667ZM41.3333 23.5908C40.1667 23.5908 39.2333 24.5149 39.2333 25.67C39.2333 26.8251 40.1667 27.7492 41.3333 27.7492C42.5 27.7492 43.4333 26.8251 43.4333 25.67C43.4333 24.5149 42.5 23.5908 41.3333 23.5908Z" fill="white"/>
</svg>
