<svg width="64" height="64" viewBox="0 0 64 64" fill="none" xmlns="http://www.w3.org/2000/svg">
<rect width="64" height="64" rx="32" fill="#575445"/>
<path d="M43.5267 21.9877H27.24C26.4933 20.3228 24.8133 19.1667 22.8533 19.1667C20.1467 19.2129 18 21.3402 18 23.9763V40.0237C18 42.6597 20.1467 44.8333 22.8533 44.8333H22.9H43.5267C44.9267 44.8333 46 43.7234 46 42.3823V24.485C46 23.0976 44.88 21.9877 43.5267 21.9877ZM18.9333 23.9763C18.9333 21.8489 20.66 20.0916 22.8533 20.0916C25.0467 20.0916 26.7733 21.8027 26.7733 23.9763V37.2027C25.8867 36.0003 24.4867 35.2141 22.8533 35.2141C21.2667 35.2141 19.82 36.0003 18.9333 37.2027V23.9763ZM18.9333 40.07C18.9333 37.9426 20.66 36.1853 22.8533 36.1853C25.0467 36.1853 26.7733 37.8964 26.7733 40.07C26.7733 42.2435 25.0467 43.9546 22.8533 43.9546C20.66 43.9546 18.9333 42.1973 18.9333 40.07ZM45.0667 42.3823C45.0667 43.2147 44.3667 43.9084 43.5267 43.9084H25.7C26.9133 43.0297 27.7067 41.6423 27.7067 40.0237V23.9763C27.7067 23.6063 27.66 23.2363 27.5667 22.9126H43.5267C44.3667 22.9126 45.0667 23.6063 45.0667 24.485V42.3823Z" fill="white"/>
</svg>
